<?xml version="1.0" encoding="utf-8"?>
<!-- Generator: Adobe Illustrator 25.0.0, SVG Export Plug-In . SVG Version: 6.00 Build 0)  -->
<svg version="1.1" id="Layer_1" xmlns="http://www.w3.org/2000/svg" xmlns:xlink="http://www.w3.org/1999/xlink" x="0px" y="0px"
	 viewBox="0 0 493.8 205.5" style="enable-background:new 0 0 493.8 205.5;" xml:space="preserve">
<style type="text/css">
	.st0{fill:#576174;}
	.st1{fill:#FFFFFF;}
	.st2{font-family:'Courier'; font-weight: bold; }
	.st3{font-size:16.7604px;}
	.st4{fill:#00983A;}
	.st5{fill:none;stroke:#45CFFF;stroke-width:2.7934;stroke-linecap:round;stroke-linejoin:round;}
	.st6{fill:#45CFFF;}
	.st7{fill:none;stroke:#A000FF;stroke-width:2.7934;stroke-linecap:round;stroke-linejoin:round;}
	.st8{fill:#A000FF;}
	.st9{fill:none;stroke:#FFDE00;stroke-width:2.793;stroke-linecap:round;stroke-linejoin:round;}
	.st10{fill:#FFDE00;}
	.st11{fill:none;stroke:#EA5B0C;stroke-width:2.793;stroke-linecap:round;stroke-linejoin:round;}
	.st12{fill:#EA5B0C;}
</style>
<path class="st0" d="M485.3,205.5H8.5c-4.7,0-8.5-3.8-8.5-8.5V8.5C0,3.8,3.8,0,8.5,0h476.8c4.7,0,8.5,3.8,8.5,8.5V197
	C493.8,201.6,490,205.5,485.3,205.5z"/>
<g>
	<g>
		<g>
			<text transform="matrix(1 0 0 1 21.294 41.4023)" class="st1 st2 st3">struct mg_str k,v,s = mg_str(”a=333, b=777”);</text>
		</g>
	</g>
	<g>
		<g>
			<text transform="matrix(1 0 0 1 21.294 117.5255)" class="st1 st2 st3">mg_commalist(&amp;s, &amp;k, &amp;v); </text>
		</g>
	</g>
	<g>
		<g>
			<text transform="matrix(1 0 0 1 21.294 178.4241)" class="st1 st2 st3">mg_commalist(&amp;s, &amp;k, &amp;v); </text>
		</g>
	</g>
	<g>
		<g>
			<text transform="matrix(1 0 0 1 291.5096 121.4556)" class="st4 st2 st3">// 1st call</text>
			<text transform="matrix(1 0 0 1 291.5096 181.0857)" class="st4 st2 st3">// 2nd call</text>
		</g>
	</g>
</g>
<g>
	<polyline class="st5" points="336.4,45.8 336.4,49.8 317.8,49.8 317.8,45.8 	"/>
	<g>
		<path class="st5" d="M122.3,40.9"/>
		<g>
			<polyline class="st5" points="327.5,58.1 327.6,75.3 203.3,75.3 203.3,97.4 			"/>
			<path class="st6" d="M331,58.9c0,1.8-1.4,3.2-3.2,3.3s-3.2-1.4-3.3-3.2c0-1.8,1.4-3.2,3.2-3.3c0,0,0,0,0,0
				C329.5,55.7,331,57.2,331,58.9z"/>
		</g>
	</g>
	<path class="st6" d="M203.2,96.2c-1.8,0-3.2,1.3-3.3,3s1.4,3,3.2,3c1.8,0,3.2-1.3,3.3-3c0,0,0,0,0,0
		C206.5,97.6,205,96.2,203.2,96.2z"/>
</g>
<g>
	<polyline class="st7" points="407.4,45.8 407.4,49.8 388.8,49.8 388.8,45.8 	"/>
	<g>
		<path class="st5" d="M193.4,40.9"/>
		<g>
			<polyline class="st7" points="398.6,58.1 398.6,130.3 203.4,130.3 203.4,158.4 			"/>
			<path class="st8" d="M402,58.9c0,1.8-1.4,3.2-3.2,3.3s-3.2-1.4-3.3-3.2c0-1.8,1.4-3.2,3.2-3.3c0,0,0,0,0,0
				C400.6,55.7,402,57.2,402,58.9z"/>
		</g>
	</g>
	<path class="st8" d="M203.2,156.7c-1.8,0-3.2,1.3-3.3,3s1.4,3,3.2,3c1.8,0,3.2-1.3,3.3-3c0,0,0,0,0,0
		C206.5,158.1,205,156.7,203.2,156.7z"/>
</g>
<g>
	<polyline class="st9" points="440.8,45.8 440.8,49.8 414.2,49.8 414.2,45.8 	"/>
	<g>
		<path class="st5" d="M218.8,40.9"/>
		<g>
			<polyline class="st9" points="428,58.1 428,144.3 245.7,144.3 245.7,157.4 			"/>
			<path class="st10" d="M431.4,58.9c0,1.8-1.4,3.2-3.2,3.3s-3.2-1.4-3.3-3.2c0-1.8,1.4-3.2,3.2-3.3c0,0,0,0,0,0
				C430,55.7,431.4,57.2,431.4,58.9z"/>
		</g>
	</g>
	<path class="st10" d="M245.4,156.7c-1.8,0-3.2,1.3-3.3,3s1.4,3,3.2,3c1.8,0,3.2-1.3,3.3-3c0,0,0,0,0,0
		C248.7,158.1,247.2,156.7,245.4,156.7z"/>
</g>
<g>
	<polyline class="st11" points="372.8,45.8 372.8,49.8 343.2,49.8 343.2,45.8 	"/>
	<g>
		<path class="st5" d="M164.7,40.9"/>
		<g>
			<polyline class="st11" points="358.3,57.9 358.3,86.1 245.7,86.3 245.7,97.4 			"/>
			<path class="st12" d="M361.4,58.9c0,1.8-1.4,3.2-3.2,3.3s-3.2-1.4-3.3-3.2c0-1.8,1.4-3.2,3.2-3.3c0,0,0,0,0,0
				C359.9,55.7,361.4,57.2,361.4,58.9z"/>
		</g>
	</g>
	<path class="st12" d="M245.7,96.2c-1.8,0-3.2,1.3-3.3,3s1.4,3,3.2,3c1.8,0,3.2-1.3,3.3-3c0,0,0,0,0,0
		C248.9,97.6,247.4,96.2,245.7,96.2z"/>
</g>
</svg>
