<?xml version="1.0" encoding="utf-8"?>
<!-- Generator: Adobe Illustrator 26.0.2, SVG Export Plug-In . SVG Version: 6.00 Build 0)  -->
<svg version="1.1" id="Layer_1" xmlns="http://www.w3.org/2000/svg" xmlns:xlink="http://www.w3.org/1999/xlink" x="0px" y="0px"
	 viewBox="0 0 1034 239" style="enable-background:new 0 0 1034 239;" xml:space="preserve">
<style type="text/css">
	.st0{fill:#576174;}
	.st1{fill:#FFFFFF;}
	.st2{font-family:'Courier-Bold';}
	.st3{font-size:16.7604px;}
	.st4{fill:#00983A;}
	.st5{fill:none;stroke:#45CFFF;stroke-width:2.7934;stroke-linecap:round;stroke-linejoin:round;}
	.st6{fill:#45CFFF;}
	.st7{fill:none;stroke:#A000FF;stroke-width:2.7934;stroke-linecap:round;stroke-linejoin:round;}
	.st8{fill:#A000FF;}
	.st9{fill:none;stroke:#FFDE00;stroke-width:2.793;stroke-linecap:round;stroke-linejoin:round;}
	.st10{fill:#FFDE00;}
	.st11{fill:none;stroke:#EA5B0C;stroke-width:2.793;stroke-linecap:round;stroke-linejoin:round;}
	.st12{fill:#EA5B0C;}
</style>
<g>
	<path class="st0" d="M485.3,224.22H8.5c-4.7,0-8.5-3.8-8.5-8.5V27.22c0-4.7,3.8-8.5,8.5-8.5h476.8c4.7,0,8.5,3.8,8.5,8.5v188.5
		C493.8,220.32,490,224.22,485.3,224.22z"/>
	<g>
		<g>
			<g>
				<text transform="matrix(1 0 0 1 21.294 60.1267)" class="st1 st2 st3">struct mg_str k,v,s = mg_str(”a=333, b=777”);</text>
			</g>
		</g>
		<g>
			<g>
				<text transform="matrix(1 0 0 1 21.294 136.2499)" class="st1 st2 st3">mg_commalist(&amp;s, &amp;k, &amp;v); </text>
			</g>
		</g>
		<g>
			<g>
				<text transform="matrix(1 0 0 1 21.294 197.1485)" class="st1 st2 st3">mg_commalist(&amp;s, &amp;k, &amp;v); </text>
			</g>
		</g>
		<g>
			<g>
				<text transform="matrix(1 0 0 1 291.5096 140.18)" class="st4 st2 st3">// 1st call</text>
				<text transform="matrix(1 0 0 1 291.5096 199.8101)" class="st4 st2 st3">// 2nd call</text>
			</g>
		</g>
	</g>
	<g>
		<polyline class="st5" points="336.4,64.52 336.4,68.52 317.8,68.52 317.8,64.52 		"/>
		<g>
			<path class="st5" d="M122.3,59.62"/>
			<g>
				<polyline class="st5" points="327.5,76.82 327.6,94.02 203.3,94.02 203.3,116.12 				"/>
				<path class="st6" d="M331,77.62c0,1.8-1.4,3.2-3.2,3.3c-1.8,0.1-3.2-1.4-3.3-3.2c0-1.8,1.4-3.2,3.2-3.3l0,0
					C329.5,74.42,331,75.92,331,77.62z"/>
			</g>
		</g>
		<path class="st6" d="M203.2,114.92c-1.8,0-3.2,1.3-3.3,3s1.4,3,3.2,3s3.2-1.3,3.3-3l0,0C206.5,116.32,205,114.92,203.2,114.92z"/>
	</g>
	<g>
		<polyline class="st7" points="407.4,64.52 407.4,68.52 388.8,68.52 388.8,64.52 		"/>
		<g>
			<path class="st5" d="M193.4,59.62"/>
			<g>
				<polyline class="st7" points="398.6,76.82 398.6,149.02 203.4,149.02 203.4,177.12 				"/>
				<path class="st8" d="M402,77.62c0,1.8-1.4,3.2-3.2,3.3c-1.8,0.1-3.2-1.4-3.3-3.2c0-1.8,1.4-3.2,3.2-3.3l0,0
					C400.6,74.42,402,75.92,402,77.62z"/>
			</g>
		</g>
		<path class="st8" d="M203.2,175.42c-1.8,0-3.2,1.3-3.3,3s1.4,3,3.2,3s3.2-1.3,3.3-3l0,0C206.5,176.82,205,175.42,203.2,175.42z"/>
	</g>
	<g>
		<polyline class="st9" points="440.8,64.52 440.8,68.52 414.2,68.52 414.2,64.52 		"/>
		<g>
			<path class="st5" d="M218.8,59.62"/>
			<g>
				<polyline class="st9" points="428,76.82 428,163.02 245.7,163.02 245.7,176.12 				"/>
				<path class="st10" d="M431.4,77.62c0,1.8-1.4,3.2-3.2,3.3c-1.8,0.1-3.2-1.4-3.3-3.2c0-1.8,1.4-3.2,3.2-3.3l0,0
					C430,74.42,431.4,75.92,431.4,77.62z"/>
			</g>
		</g>
		<path class="st10" d="M245.4,175.42c-1.8,0-3.2,1.3-3.3,3s1.4,3,3.2,3s3.2-1.3,3.3-3l0,0C248.7,176.82,247.2,175.42,245.4,175.42z
			"/>
	</g>
	<g>
		<polyline class="st11" points="372.8,64.52 372.8,68.52 343.2,68.52 343.2,64.52 		"/>
		<g>
			<path class="st5" d="M164.7,59.62"/>
			<g>
				<polyline class="st11" points="358.3,76.62 358.3,104.82 245.7,105.02 245.7,116.12 				"/>
				<path class="st12" d="M361.4,77.62c0,1.8-1.4,3.2-3.2,3.3c-1.8,0.1-3.2-1.4-3.3-3.2c0-1.8,1.4-3.2,3.2-3.3l0,0
					C359.9,74.42,361.4,75.92,361.4,77.62z"/>
			</g>
		</g>
		<path class="st12" d="M245.7,114.92c-1.8,0-3.2,1.3-3.3,3s1.4,3,3.2,3s3.2-1.3,3.3-3l0,0C248.9,116.32,247.4,114.92,245.7,114.92z
			"/>
	</g>
</g>
</svg>
