<?xml version="1.0" encoding="utf-8"?>
<!-- Generator: Adobe Illustrator 25.0.0, SVG Export Plug-In . SVG Version: 6.00 Build 0)  -->
<svg version="1.1" id="Layer_1" xmlns="http://www.w3.org/2000/svg" xmlns:xlink="http://www.w3.org/1999/xlink" x="0px" y="0px"
	 viewBox="0 0 516.7 134.9" style="enable-background:new 0 0 516.7 134.9;" xml:space="preserve">
<style type="text/css">
	.st0{fill:#67748A;}
	.st1{fill:#FFFFFF;}
	.st2{font-family:'Courier'; font-weight: bold;}
	.st3{font-size:16.7604px;}
	.st4{fill:none;stroke:#45CFFF;stroke-width:2.793;stroke-linecap:round;stroke-linejoin:round;}
	.st5{fill:#45CFFF;}
	.st6{font-family:'MyriadPro-Regular';}
</style>
<path class="st0" d="M516.7,8.5V72c0,4.7-3.8,8.5-8.5,8.5L14.6,80.5l-6.1,0C3.8,80.5,0,76.7,0,72V8.5C0,3.8,3.8,0,8.5,0h499.7
	C512.9,0,516.7,3.8,516.7,8.5z"/>
<text transform="matrix(1 0 0 1 51.0379 46.1548)" class="st1 st2 st3">GET /test \n\nGET /test \n\nGET test \n\n</text>
<g>
	<polyline class="st4" points="189.5,53.3 189.5,57.3 51.8,57.3 51.8,53.3 	"/>
	<polyline class="st4" points="331.3,53.3 331.3,57.3 195.6,57.3 195.6,53.3 	"/>
	<polyline class="st4" points="462.7,53.3 462.7,57.3 336.9,57.3 336.9,53.3 	"/>
</g>
<g>
	<text transform="matrix(1 0 0 1 72.8985 125.7126)"><tspan x="0" y="0" class="st5 st6 st3">1st </tspan><tspan x="24.3" y="0" class="st5 st2 st3">request</tspan></text>
	<g>
		<line class="st4" x1="120.2" y1="70.4" x2="120.3" y2="106.4"/>
		<path class="st5" d="M117.1,69.4c0-1.8,1.4-3.2,3.2-3.3c1.8,0,3.2,1.4,3.3,3.2c0,1.8-1.4,3.2-3.2,3.3c0,0,0,0,0,0
			C118.5,72.6,117.1,71.2,117.1,69.4z"/>
	</g>
</g>
<g>
	<text transform="matrix(1 0 0 1 209.5105 125.7126)"><tspan x="0" y="0" class="st5 st6 st3">2nd </tspan><tspan x="30.9" y="0" class="st5 st2 st3">request </tspan></text>
	<g>
		<line class="st4" x1="263.8" y1="70.4" x2="263.9" y2="106.4"/>
		<path class="st5" d="M260.7,69.4c0-1.8,1.4-3.2,3.2-3.3c1.8,0,3.2,1.4,3.3,3.2c0,1.8-1.4,3.2-3.2,3.3c0,0,0,0,0,0
			C262.1,72.6,260.7,71.2,260.7,69.4z"/>
	</g>
</g>
<g>
	<text transform="matrix(1 0 0 1 348.9728 125.7126)"><tspan x="0" y="0" class="st5 st6 st3">3rd </tspan><tspan x="27.1" y="0" class="st5 st2 st3">request </tspan></text>
	<g>
		<line class="st4" x1="399.4" y1="70.4" x2="399.4" y2="106.4"/>
		<path class="st5" d="M396.2,69.4c0-1.8,1.4-3.2,3.2-3.3c1.8,0,3.2,1.4,3.3,3.2c0,1.8-1.4,3.2-3.2,3.3c0,0,0,0,0,0
			C397.7,72.6,396.2,71.2,396.2,69.4z"/>
	</g>
</g>
</svg>
