<?xml version="1.0" encoding="utf-8"?>
<!-- Generator: Adobe Illustrator 26.0.2, SVG Export Plug-In . SVG Version: 6.00 Build 0)  -->
<svg version="1.1" id="Layer_1" xmlns="http://www.w3.org/2000/svg" xmlns:xlink="http://www.w3.org/1999/xlink" x="0px" y="0px"
	 viewBox="0 0 1034 480.6" style="enable-background:new 0 0 1034 480.6;" xml:space="preserve">
<style type="text/css">
	.st0{fill:#67748A;}
	.st1{fill:#8B9CBA;}
	.st2{fill:#FFFFFF;}
	.st3{font-family:'Courier-Bold';}
	.st4{font-size:16.7604px;}
	.st5{fill:#414857;}
	.st6{font-family:'Arial-BoldMT';}
	.st7{font-size:30px;}
	.st8{font-size:24px;}
	.st9{fill:#576174;}
	.st10{fill:none;stroke:#45CFFF;stroke-width:2.7934;stroke-linecap:round;stroke-linejoin:round;}
	.st11{fill:#45CFFF;}
	.st12{fill:none;stroke:#EA5B0C;stroke-width:2.793;stroke-linecap:round;stroke-linejoin:round;}
	.st13{fill:#EA5B0C;}
	.st14{fill:none;stroke:#EA5B0C;stroke-width:2.7934;stroke-linecap:round;stroke-linejoin:round;}
	.st15{fill:none;stroke:#FFDE00;stroke-width:2.793;stroke-linecap:round;stroke-linejoin:round;}
	.st16{fill:#FFDE00;}
</style>
<g>
	<g>
		<path class="st0" d="M908.4,454.9H272c-4.7,0-8.5-3.8-8.5-8.5V216c0-4.7,3.8-8.5,8.5-8.5h636.4c4.7,0,8.5,3.8,8.5,8.5v230.4
			C916.9,451.1,913.1,454.9,908.4,454.9z"/>
		<g>
			<path class="st1" d="M898.6,430.8H284.7c-4.7,0-8.5-3.8-8.5-8.5V315.9c0-4.7,3.8-8.5,8.5-8.5h613.9c4.7,0,8.5,3.8,8.5,8.5v106.5
				C907.1,427,903.3,430.8,898.6,430.8z"/>
			<text transform="matrix(1 0 0 1 295.3688 243.086)" class="st2 st3 st4">POST /upload HTTP/1.1 </text>
			<text transform="matrix(1 0 0 1 295.3688 263.186)" class="st2 st3 st4">Content-Type: multipart/form-data: boundary=&quot;--xyz&quot;</text>
			<text transform="matrix(1 0 0 1 295.3688 303.386)" class="st2 st3 st4">--xyz</text>
			<text transform="matrix(1 0 0 1 295.3688 323.586)" class="st2 st3 st4">Content-Disposition: form-data; name=&quot;foo&quot;; filename=&quot;a.txt&quot;</text>
			<text transform="matrix(1 0 0 1 295.3688 343.686)" class="st2 st3 st4">Content-Type: text/plain</text>
			<text transform="matrix(1 0 0 1 295.3688 383.886)" class="st2 st3 st4">hello world</text>
			<text transform="matrix(1 0 0 1 295.3688 424.086)" class="st2 st3 st4">--xyz---</text>
		</g>
	</g>
	<text transform="matrix(1 0 0 1 739.2766 414.2906)" class="st5 st6 st7">HTTP part</text>
	<text transform="matrix(1 0 0 1 739.2764 193.4305)" class="st6 st8">HTTP message</text>
	<path class="st9" d="M304.9,198H8.5c-4.7,0-8.5-3.8-8.5-8.5V64.8c0-4.7,3.8-8.5,8.5-8.5H305c4.7,0,8.5,3.8,8.5,8.5v124.7
		C313.4,194.2,309.6,198,304.9,198z"/>
	<g>
		<g>
			<text transform="matrix(1 0 0 1 25.2409 91.1617)" class="st2 st3 st4">struct mg_http_part {</text>
			<text transform="matrix(1 0 0 1 47.0734 113.7079)" class="st2 st3 st4">struct mg_str name;</text>
			<text transform="matrix(1 0 0 1 47.0734 133.8079)" class="st2 st3 st4">strucy mg_str filename;</text>
			<text transform="matrix(1 0 0 1 47.0734 153.9079)" class="st2 st3 st4">struct mg_str body;</text>
		</g>
	</g>
	<g>
		<polyline class="st10" points="237.4,159 237.4,163 185.8,163 185.8,159 		"/>
		<g>
			<polyline class="st10" points="211.7,348.3 349.5,348.4 349.5,355.6 			"/>
			<g>
				<line class="st10" x1="211.6" y1="174.4" x2="211.6" y2="348.1"/>
				<path class="st11" d="M211.6,170.3c-1.8,0-3.2,1.4-3.3,3.2c0,1.8,1.4,3.2,3.2,3.3c1.8,0,3.2-1.4,3.3-3.2l0,0
					C214.8,171.8,213.4,170.3,211.6,170.3z"/>
			</g>
		</g>
		<path class="st11" d="M349.6,353.6c-1.8,0-3.2,1.4-3.3,3.2s1.4,3.2,3.2,3.3c1.8,0,3.2-1.4,3.3-3.2l0,0
			C352.8,355.1,351.4,353.6,349.6,353.6z"/>
		<polyline class="st10" points="237.4,159 237.4,163 185.8,163 185.8,159 		"/>
		<polyline class="st10" points="407.3,371.1 407.3,367.1 293.3,367.1 293.3,371.1 		"/>
	</g>
	<g>
		<g>
			<g>
				<polyline class="st12" points="693.7,291.6 693.7,277.7 280.7,278.8 280.5,109.4 248.3,109.4 				"/>
				<path class="st13" d="M696.9,293.6c0,1.8-1.4,3.2-3.2,3.3c-1.8,0-3.2-1.4-3.3-3.2c0-1.8,1.4-3.2,3.2-3.3l0,0
					C695.4,290.4,696.9,291.9,696.9,293.6z"/>
			</g>
			<path class="st13" d="M243.9,109.5c0-1.8,1.4-3.2,3.2-3.3c1.8,0,3.2,1.4,3.3,3.2c0,1.8-1.4,3.2-3.2,3.3l0,0
				C245.3,112.7,243.9,111.3,243.9,109.5z"/>
		</g>
		<polyline class="st14" points="707.6,309.2 707.6,305.2 679.9,305.2 679.9,309.2 		"/>
	</g>
	<text transform="matrix(1 0 0 1 0.8627 37.8099)" class="st6 st8">Source Code</text>
	<text transform="matrix(1 0 0 1 25.2408 177.7241)" class="st2 st3 st4">};</text>
	<g>
		<g>
			<g>
				<polyline class="st15" points="863.8,291.5 863.7,218.6 329.7,218.7 329.6,130.3 298.4,130.3 				"/>
				<path class="st16" d="M867.1,293.6c0,1.8-1.4,3.2-3.2,3.3c-1.8,0-3.2-1.4-3.3-3.2c0-1.8,1.4-3.2,3.2-3.3l0,0
					C865.6,290.3,867.1,291.8,867.1,293.6z"/>
			</g>
			<path class="st16" d="M293,130.1c0-1.8,1.4-3.2,3.2-3.3c1.8,0,3.2,1.4,3.3,3.2c0,1.8-1.4,3.2-3.2,3.3l0,0
				C294.4,133.3,293,131.9,293,130.1z"/>
		</g>
		<polyline class="st15" points="888.7,309.1 888.7,305.1 838.9,305.1 838.9,309.1 		"/>
	</g>
</g>
</svg>
