<?xml version="1.0" encoding="utf-8"?>
<!-- Generator: Adobe Illustrator 26.0.2, SVG Export Plug-In . SVG Version: 6.00 Build 0)  -->
<svg version="1.1" id="Layer_1" xmlns="http://www.w3.org/2000/svg" xmlns:xlink="http://www.w3.org/1999/xlink" x="0px" y="0px"
	 viewBox="0 0 1034 331.2" style="enable-background:new 0 0 1034 331.2;" xml:space="preserve">
<style type="text/css">
	.st0{fill:#576174;}
	.st1{fill:#67748A;}
	.st2{fill:#FFFFFF;}
	.st3{font-family:'Courier-Bold';}
	.st4{font-size:16.7604px;}
	.st5{font-family:'Arial-BoldMT';}
	.st6{font-size:24px;}
	.st7{fill:none;stroke:#45CFFF;stroke-width:2.7934;stroke-linecap:round;stroke-linejoin:round;}
	.st8{fill:#45CFFF;}
	.st9{fill:none;stroke:#EA5B0C;stroke-width:2.793;stroke-linecap:round;stroke-linejoin:round;}
	.st10{fill:#EA5B0C;}
	.st11{fill:none;stroke:#EA5B0C;stroke-width:2.7934;stroke-linecap:round;stroke-linejoin:round;}
	.st12{fill:none;stroke:#00CF4F;stroke-width:2.7934;stroke-linecap:round;stroke-linejoin:round;}
	.st13{fill:#00CF4F;}
</style>
<g>
	<path class="st0" d="M541.43,184.2H8.53c-4.7,0-8.5-3.8-8.5-8.5V54.8c0-4.7,3.8-8.5,8.5-8.5h532.9c4.7,0,8.5,3.8,8.5,8.5v120.9
		C549.93,180.4,546.13,184.2,541.43,184.2z"/>
	<g>
		<path class="st1" d="M829.23,315.5h-370c-4.7,0-8.5-3.8-8.5-8.5V157c0-4.7,3.8-8.5,8.5-8.5h370c4.7,0,8.5,3.8,8.5,8.5v150
			C837.83,311.7,833.93,315.5,829.23,315.5z"/>
		<g>
			<text transform="matrix(1 0 0 1 490.6096 184.0905)" class="st2 st3 st4">HTTP/1.1 200 OK</text>
			<text transform="matrix(1 0 0 1 490.6096 204.1905)" class="st2 st3 st4">Content-Length; 13</text>
			<text transform="matrix(1 0 0 1 490.6096 224.2905)" class="st2 st3 st4">X-Header-1: additional value 1</text>
			<text transform="matrix(1 0 0 1 490.6096 244.3905)" class="st2 st3 st4">X-Header-2: additional value 2</text>
			<text transform="matrix(1 0 0 1 490.8657 293.1559)" class="st2 st3 st4">Hello, world!</text>
		</g>
	</g>
	<text transform="matrix(1 0 0 1 660.5036 137.3383)" class="st5 st6">HTTP message</text>
	<g>
		<g>
			<text transform="matrix(1 0 0 1 20.7331 85.1617)" class="st2 st3 st4">mg_http_reply(c, 200</text>
			<text transform="matrix(1 0 0 1 159.5657 113.7079)" class="st2 st3 st4">&quot;X-Header-1: additional value 1\r\n&quot;</text>
			<text transform="matrix(1 0 0 1 159.5657 133.8079)" class="st2 st3 st4">&quot;X-Header-2: additional value 2\r\n&quot;,</text>
			<text transform="matrix(1 0 0 1 159.5657 153.9079)" class="st2 st3 st4">&quot;Hello, %s!&quot;, &quot;world&quot;);</text>
		</g>
	</g>
	<g>
		<polyline class="st7" points="362.93,159 362.93,163 167.33,163 167.33,159 		"/>
		<g>
			<polyline class="st7" points="265.93,256.6 552.13,256.7 552.13,264.4 			"/>
			<g>
				<line class="st7" x1="265.83" y1="174.4" x2="265.83" y2="256.6"/>
				<path class="st8" d="M265.83,170.3c-1.8,0-3.2,1.4-3.3,3.2c0,1.8,1.4,3.2,3.2,3.3c1.8,0,3.2-1.4,3.3-3.2l0,0
					C269.03,171.8,267.53,170.3,265.83,170.3z"/>
			</g>
		</g>
		<path class="st8" d="M552.23,261.6c-1.8,0-3.2,1.4-3.3,3.2c0,1.8,1.4,3.2,3.2,3.3c1.8,0,3.2-1.4,3.3-3.2l0,0
			C555.43,263.1,554.03,261.6,552.23,261.6z"/>
	</g>
	<g>
		<g>
			<g>
				<polyline class="st9" points="206.33,53.6 206.43,37.6 596.43,38.7 596.53,161.3 				"/>
				<path class="st10" d="M203.23,54.6c0,1.8,1.4,3.2,3.2,3.3c1.8,0,3.2-1.4,3.3-3.2c0-1.8-1.4-3.2-3.2-3.3l0,0
					C204.63,51.4,203.23,52.8,203.23,54.6z"/>
			</g>
			<path class="st10" d="M599.83,164c0-1.8-1.4-3.2-3.2-3.3c-1.8,0-3.2,1.4-3.3,3.2c0,1.8,1.4,3.2,3.2,3.3l0,0
				C598.33,167.2,599.83,165.8,599.83,164z"/>
		</g>
		<polyline class="st11" points="192.43,69.2 192.43,65.2 220.23,65.2 220.23,69.2 		"/>
	</g>
	<text transform="matrix(1 0 0 1 -1.917133e-04 35.0037)" class="st5 st6">Source Code</text>
	<g>
		<polyline class="st12" points="160.13,135.9 156.03,135.9 156.03,100.1 160.13,100.1 		"/>
		<g>
			<line class="st12" x1="123.93" y1="231" x2="469.73" y2="231"/>
			<polyline class="st12" points="144.73,117.2 123.83,117.2 123.73,230.8 			"/>
			<path class="st13" d="M147.83,117.2c0-1.8-1.4-3.2-3.2-3.3c-1.8,0-3.2,1.4-3.3,3.2c0,1.8,1.4,3.2,3.2,3.3l0,0
				C146.33,120.4,147.83,119,147.83,117.2z"/>
			<path class="st13" d="M474.83,230.8c0-1.8-1.4-3.2-3.2-3.3c-1.8,0-3.2,1.4-3.3,3.2c0,1.8,1.4,3.2,3.2,3.3l0,0
				C473.43,234,474.83,232.5,474.83,230.8z"/>
		</g>
	</g>
	<polyline class="st7" points="489.03,279.6 489.03,275.6 620.63,275.6 620.63,279.6 	"/>
	<polyline class="st12" points="487.63,248.3 483.63,248.3 483.63,211.5 487.63,211.5 	"/>
</g>
</svg>
