<?xml version="1.0" encoding="utf-8"?>
<!-- Generator: Adobe Illustrator 26.0.2, SVG Export Plug-In . SVG Version: 6.00 Build 0)  -->
<svg version="1.1" id="Layer_1" xmlns="http://www.w3.org/2000/svg" xmlns:xlink="http://www.w3.org/1999/xlink" x="0px" y="0px"
	 viewBox="0 0 1035.4 429.9" style="enable-background:new 0 0 1035.4 429.9;" xml:space="preserve">
<style type="text/css">
	.st0{fill:#576174;}
	.st1{fill:#67748A;}
	.st2{fill:none;stroke:#87005B;stroke-width:2.7934;stroke-linecap:round;stroke-linejoin:round;}
	.st3{fill:#87005B;}
	.st4{fill:#FFFFFF;}
	.st5{font-family:'Courier-Bold';}
	.st6{font-size:16.7604px;}
	.st7{fill:none;stroke:#EA5B0C;stroke-width:2.793;stroke-linecap:round;stroke-linejoin:round;}
	.st8{fill:#EA5B0C;}
	.st9{fill:none;stroke:#CA70FF;stroke-width:2.7934;stroke-linecap:round;stroke-linejoin:round;}
	.st10{fill:#CA70FF;}
	.st11{fill:none;stroke:#FFDE00;stroke-width:2.793;stroke-linecap:round;stroke-linejoin:round;}
	.st12{fill:#FFDE00;}
	.st13{fill:none;stroke:#00CF4F;stroke-width:2.7934;stroke-linecap:round;stroke-linejoin:round;}
	.st14{fill:#00CF4F;}
	.st15{fill:none;stroke:#45CFFF;stroke-width:2.7934;stroke-linecap:round;stroke-linejoin:round;}
	.st16{fill:none;stroke:#EA5B0C;stroke-width:2.7934;stroke-linecap:round;stroke-linejoin:round;}
	.st17{font-family:'Arial-BoldMT';}
	.st18{font-size:24px;}
	.st19{fill:#45CFFF;}
</style>
<g>
	<path class="st0" d="M755.8,391.8H8.5c-4.7,0-8.5-3.8-8.5-8.5v-153c0-4.7,3.8-8.5,8.5-8.5h747.3c4.7,0,8.5,3.8,8.5,8.5v153
		C764.3,388,760.5,391.8,755.8,391.8z"/>
	<path class="st1" d="M996.9,261.5h-427c-4.7,0-8.5-3.8-8.5-8.5V81.2c0-4.7,3.8-8.5,8.5-8.5h427c4.7,0,8.5,3.8,8.5,8.5V253
		C1005.4,257.7,1001.5,261.5,996.9,261.5z"/>
	<g>
		<polyline class="st2" points="598.1,238.2 598.1,242.3 787.7,242.3 787.7,238.2 		"/>
		<g>
			<line class="st2" x1="689.3" y1="342.2" x2="276.4" y2="343.3"/>
			<g>
				<line class="st2" x1="689.4" y1="253.3" x2="689.4" y2="342.1"/>
				<path class="st3" d="M689.4,249.3c1.8,0,3.2,1.4,3.3,3.2c0,1.8-1.4,3.2-3.2,3.3c-1.8,0-3.2-1.4-3.3-3.2l0,0
					C686.1,250.7,687.6,249.3,689.4,249.3z"/>
			</g>
		</g>
		<path class="st3" d="M274.2,340.4c1.8,0,3.2,1.4,3.3,3.2s-1.4,3.2-3.2,3.3c-1.8,0-3.2-1.4-3.3-3.2l0,0
			C270.9,341.8,272.4,340.4,274.2,340.4z"/>
	</g>
	<text transform="matrix(1 0 0 1 26.0923 262.5192)" class="st4 st5 st6">struct mg_http_message {</text>
	<text transform="matrix(1 0 0 1 45.542 286.2874)" class="st4 st5 st6">struct mg_str method; uri, query, proto; </text>
	<text transform="matrix(1 0 0 1 45.542 306.3874)" class="st4 st5 st6">struct mg_http_header headers[MG_MAX_HTTP_HEADERS];</text>
	<text transform="matrix(1 0 0 1 45.542 326.4874)" class="st4 st5 st6">struct mg_str body;</text>
	<text transform="matrix(1 0 0 1 45.542 346.5874)" class="st4 st5 st6">struct mg_str message; </text>
	<g>
		<g>
			<polyline class="st7" points="621.1,89.6 621.1,78.6 215.4,79.7 215.3,269.4 			"/>
			<path class="st8" d="M624.3,90.6c0,1.8-1.4,3.2-3.2,3.3c-1.8,0-3.2-1.4-3.3-3.2c0-1.8,1.4-3.2,3.2-3.3l0,0
				C622.8,87.4,624.3,88.8,624.3,90.6z"/>
		</g>
		<path class="st8" d="M212.3,269.4c0-1.8,1.4-3.2,3.2-3.3c1.8,0,3.2,1.4,3.3,3.2c0,1.8-1.4,3.2-3.2,3.3l0,0
			C213.7,272.6,212.3,271.2,212.3,269.4z"/>
	</g>
	<g>
		<polyline class="st9" points="597.2,183.6 593.1,183.6 593.1,127.8 597.2,127.8 		"/>
		<g>
			<polyline class="st9" points="582.4,156.2 575.2,156.2 575,302.8 563.4,302.8 			"/>
			<path class="st10" d="M586.1,156.2c0-1.8-1.4-3.2-3.2-3.3c-1.8,0-3.2,1.4-3.3,3.2c0,1.8,1.4,3.2,3.2,3.3l0,0
				C584.7,159.4,586.1,158,586.1,156.2z"/>
			<path class="st10" d="M564.2,303c0-1.8-1.4-3.2-3.2-3.3c-1.8,0-3.2,1.4-3.3,3.2s1.4,3.2,3.2,3.3l0,0
				C562.7,306.2,564.2,304.7,564.2,303z"/>
		</g>
	</g>
	<text transform="matrix(1 0 0 1 601.1215 118.1291)" class="st4 st5 st6">POST /foo/bar/baz?aa=b&amp;cc=ddd HTTP/1.1</text>
	<text transform="matrix(1 0 0 1 601.1215 138.2291)" class="st4 st5 st6">Content-Type: application/json</text>
	<text transform="matrix(1 0 0 1 601.1215 158.3291)" class="st4 st5 st6">Content-Length: 19</text>
	<text transform="matrix(1 0 0 1 601.1215 178.4291)" class="st4 st5 st6">Host: reqbin.com</text>
	<g>
		<g>
			<g>
				<polyline class="st11" points="712.3,90.6 712.4,67.6 277.8,67.6 279.7,269.3 				"/>
				<path class="st12" d="M715.6,90.8c0,1.8-1.4,3.2-3.2,3.3c-1.8,0-3.2-1.4-3.3-3.2c0-1.8,1.4-3.2,3.2-3.3l0,0
					C714.1,87.6,715.6,89.1,715.6,90.8z"/>
			</g>
			<path class="st12" d="M276.5,269.4c0-1.8,1.4-3.2,3.2-3.3s3.2,1.4,3.3,3.2s-1.4,3.2-3.2,3.3l0,0
				C278,272.6,276.5,271.2,276.5,269.4z"/>
		</g>
		<polyline class="st11" points="771.5,104.3 771.5,100.3 652.7,100.3 652.7,104.3 		"/>
	</g>
	<g>
		<g>
			<g>
				<polyline class="st13" points="836.3,90.6 836.3,56.6 342.8,56.6 344.7,268.3 				"/>
				<path class="st14" d="M839.5,90.6c0,1.8-1.4,3.2-3.2,3.3c-1.8,0-3.2-1.4-3.3-3.2c0-1.8,1.4-3.2,3.2-3.3l0,0
					C838,87.4,839.5,88.9,839.5,90.6z"/>
			</g>
			<path class="st14" d="M341.4,269.3c0-1.8,1.4-3.2,3.2-3.3c1.8,0,3.2,1.4,3.3,3.2c0,1.8-1.4,3.2-3.2,3.3l0,0
				C342.9,272.5,341.4,271.1,341.4,269.3z"/>
		</g>
		<polyline class="st15" points="981.4,104.2 981.4,100.2 902.6,100.2 902.6,104.2 		"/>
	</g>
	<text transform="matrix(1 0 0 1 596.891 232.3658)" class="st4 st5 st6">{&quot;success&quot;: &quot;true&quot;}</text>
	<polyline class="st16" points="643.1,104.4 643.1,100.4 599.3,100.4 599.3,104.4 	"/>
	<text transform="matrix(1 0 0 1 9.5506 207.5157)" class="st17 st18">Source Code</text>
	<text transform="matrix(1 0 0 1 797.0799 32.3923)" class="st17 st18">HTTP message</text>
	<text transform="matrix(1 0 0 1 26.0924 359.209)" class="st4 st5 st6">};</text>
	<polyline class="st13" points="894.2,104.2 894.2,100.2 774.4,100.2 774.4,104.2 	"/>
	<g>
		<g>
			<polyline class="st15" points="941.3,90.6 941.3,45.6 412.8,45.6 414.7,268.3 			"/>
			<path class="st19" d="M944.5,90.6c0,1.8-1.4,3.2-3.2,3.3c-1.8,0-3.2-1.4-3.3-3.2c0-1.8,1.4-3.2,3.2-3.3l0,0
				C943,87.4,944.5,88.9,944.5,90.6z"/>
		</g>
		<path class="st19" d="M411.4,269.3c0-1.8,1.4-3.2,3.2-3.3c1.8,0,3.2,1.4,3.3,3.2c0,1.8-1.4,3.2-3.2,3.3l0,0
			C412.9,272.5,411.4,271.1,411.4,269.3z"/>
	</g>
</g>
</svg>
