<?xml version="1.0" encoding="utf-8"?>
<!-- Generator: Adobe Illustrator 26.0.2, SVG Export Plug-In . SVG Version: 6.00 Build 0)  -->
<svg version="1.1" id="Layer_1" xmlns="http://www.w3.org/2000/svg" xmlns:xlink="http://www.w3.org/1999/xlink" x="0px" y="0px"
	 viewBox="0 0 1034 158.07" style="enable-background:new 0 0 1034 158.07;" xml:space="preserve">
<style type="text/css">
	.st0{fill:#67748A;}
	.st1{fill:#FFFFFF;}
	.st2{font-family:'Courier-Bold';}
	.st3{font-size:16.7604px;}
	.st4{fill:none;stroke:#45CFFF;stroke-width:2.793;stroke-linecap:round;stroke-linejoin:round;}
	.st5{fill:#45CFFF;}
	.st6{font-family:'Arial-BoldMT';}
</style>
<g>
	<path class="st0" d="M516.7,39.8v56.33c0,4.17-3.8,7.54-8.5,7.54H14.6H8.5c-4.7,0-8.5-3.37-8.5-7.54V39.8c0-4.17,3.8-7.54,8.5-7.54
		h499.7C512.9,32.26,516.7,35.63,516.7,39.8z"/>
	<text transform="matrix(1 0 0 1 51.0379 69.3318)" class="st1 st2 st3">GET /test \n\nGET /test \n\nGET test \n\n</text>
	<g>
		<polyline class="st4" points="189.5,76.47 189.5,80.47 51.8,80.47 51.8,76.47 		"/>
		<polyline class="st4" points="331.3,76.47 331.3,80.47 195.6,80.47 195.6,76.47 		"/>
		<polyline class="st4" points="462.7,76.47 462.7,80.47 336.9,80.47 336.9,76.47 		"/>
	</g>
	<g>
		<text transform="matrix(1 0 0 1 78.8909 148.8896)" class="st5 st6 st3">1st request</text>
		<g>
			<line class="st4" x1="120.2" y1="93.57" x2="120.3" y2="129.57"/>
			<path class="st5" d="M117.1,92.57c0-1.8,1.4-3.2,3.2-3.3c1.8,0,3.2,1.4,3.3,3.2c0,1.8-1.4,3.2-3.2,3.3l0,0
				C118.5,95.77,117.1,94.37,117.1,92.57z"/>
		</g>
	</g>
	<g>
		<text transform="matrix(1 0 0 1 217.3594 148.8891)" class="st5 st6 st3">2nd request </text>
		<g>
			<line class="st4" x1="263.8" y1="93.57" x2="263.9" y2="129.57"/>
			<path class="st5" d="M260.7,92.57c0-1.8,1.4-3.2,3.2-3.3c1.8,0,3.2,1.4,3.3,3.2c0,1.8-1.4,3.2-3.2,3.3l0,0
				C262.1,95.77,260.7,94.37,260.7,92.57z"/>
		</g>
	</g>
	<g>
		<text transform="matrix(1 0 0 1 354.7297 148.8896)" class="st5 st6 st3">3rd request </text>
		<g>
			<line class="st4" x1="399.4" y1="93.57" x2="399.4" y2="129.57"/>
			<path class="st5" d="M396.2,92.57c0-1.8,1.4-3.2,3.2-3.3c1.8,0,3.2,1.4,3.3,3.2c0,1.8-1.4,3.2-3.2,3.3l0,0
				C397.7,95.77,396.2,94.37,396.2,92.57z"/>
		</g>
	</g>
</g>
</svg>
