<?xml version="1.0" encoding="utf-8"?>
<!-- Generator: Adobe Illustrator 25.0.0, SVG Export Plug-In . SVG Version: 6.00 Build 0)  -->
<svg version="1.1" id="Layer_1" xmlns="http://www.w3.org/2000/svg" xmlns:xlink="http://www.w3.org/1999/xlink" x="0px" y="0px"
	 viewBox="0 0 869 151.6" style="enable-background:new 0 0 869 151.6;" xml:space="preserve">
<style type="text/css">
	.st0{fill:#F2F3F3;stroke:#7A8387;stroke-width:1.2;stroke-linecap:round;stroke-linejoin:round;}
	.st1{fill:#00983A;}
	.st2{font-family:'Courier'; font-weight: bold; }
	.st3{font-size:16.7604px;}
	.st4{fill:none;stroke:#00983A;stroke-linecap:round;stroke-linejoin:round;}
	.st5{fill:#7A8387;}
</style>
<g>
	<g>
		<g>
			<polyline class="st0" points="848.6,78.4 23.2,78.4 23.2,53.7 848.6,53.6 			"/>
			<line class="st0" x1="23.2" y1="32.2" x2="23.2" y2="93.4"/>
			<path class="st0" d="M848.6,78.4"/>
			<line class="st0" x1="54.2" y1="53.9" x2="54.2" y2="77.6"/>
			<line class="st0" x1="86.6" y1="53.9" x2="86.6" y2="77.6"/>
			<line class="st0" x1="119.1" y1="53.9" x2="119.1" y2="77.6"/>
			<line class="st0" x1="151.4" y1="53.9" x2="151.4" y2="77.6"/>
			<line class="st0" x1="183.9" y1="53.9" x2="183.9" y2="77.6"/>
			<line class="st0" x1="216.2" y1="54.6" x2="216.2" y2="78.3"/>
			<line class="st0" x1="248.6" y1="54.6" x2="248.6" y2="78.3"/>
		</g>
		<g>
			<text transform="matrix(1 0 0 1 76.8666 40.8585)" class="st1 st2 st3">buf=NULL, len=0, size=0 </text>
		</g>
		<g>
			<text transform="matrix(1 0 0 1 17.6756 109.9024)" class="st1 st2 st3">0</text>
		</g>
		<g>
			<g>
				<g>
					<line class="st4" x1="64.4" y1="37.7" x2="35.4" y2="37.7"/>
					<g>
						<polygon class="st1" points="35.8,40.1 35.8,35.2 33.3,37.7 						"/>
					</g>
				</g>
			</g>
		</g>
		<g>
			<path class="st5" d="M529.2,66.4c0,0.9-0.7,1.6-1.6,1.6s-1.6-0.7-1.6-1.6s0.7-1.6,1.6-1.6S529.2,65.5,529.2,66.4z"/>
			<path class="st5" d="M543,66.4c0,0.9-0.7,1.6-1.6,1.6s-1.6-0.7-1.6-1.6s0.7-1.6,1.6-1.6S543,65.5,543,66.4z"/>
			<path class="st5" d="M556.7,66.4c0,0.9-0.7,1.6-1.6,1.6c-0.9,0-1.6-0.7-1.6-1.6s0.7-1.6,1.6-1.6C556,64.8,556.7,65.5,556.7,66.4z
				"/>
			<path class="st5" d="M570.5,66.4c0,0.9-0.7,1.6-1.6,1.6s-1.6-0.7-1.6-1.6s0.7-1.6,1.6-1.6S570.5,65.5,570.5,66.4z"/>
		</g>
	</g>
</g>
</svg>
