<?xml version="1.0" encoding="utf-8"?>
<!-- Generator: Adobe Illustrator 25.0.0, SVG Export Plug-In . SVG Version: 6.00 Build 0)  -->
<svg version="1.1" id="Layer_1" xmlns="http://www.w3.org/2000/svg" xmlns:xlink="http://www.w3.org/1999/xlink" x="0px" y="0px"
	 viewBox="0 0 379 196.3" style="enable-background:new 0 0 379 196.3;" xml:space="preserve">
<style type="text/css">
	.st0{font-family:'ProximaNova-Regular';}
	.st1{font-size:24px;}
	.st2{opacity:0.2;fill:#00983A;}
	.st3{fill:none;stroke:#7A8387;stroke-width:1.2;stroke-linecap:round;stroke-linejoin:round;}
	.st4{fill:#00983A;}
	.st5{fill:#F2F3F3;stroke:#7A8387;stroke-width:1.2;stroke-linecap:round;stroke-linejoin:round;}
	.st6{fill:none;stroke:#576174;stroke-width:1.2;stroke-linecap:round;stroke-linejoin:round;}
	.st7{font-family:'Courier';}
	.st8{font-size:16.7604px;}
	.st9{fill:none;stroke:#00983A;stroke-linecap:round;stroke-linejoin:round;}
	.st10{fill:#576174;}
	.st11{fill:#7A8387;}
	.st12{fill:none;stroke:#576174;stroke-linecap:round;stroke-linejoin:round;}
	.st13{fill:none;stroke:#7A8387;stroke-linecap:round;stroke-linejoin:round;}
</style>
<text transform="matrix(1 0 0 1 20.618 32.4549)" class="st0 st1">Memory</text>
<polyline class="st2" points="323.1,115.4 183.4,115.4 183.4,90.7 323.1,90.7 "/>
<g>
	<g>
		<g>
			<polyline class="st3" points="357.5,115.4 182.5,115.4 182.5,90.7 357.5,90.7 			"/>
			<polyline class="st4" points="182.7,115.1 22.5,115.1 22.5,91.3 182.7,91.3 			"/>
			<line class="st5" x1="22.5" y1="69.2" x2="22.5" y2="130.4"/>
			<line class="st5" x1="183.3" y1="69.2" x2="183.3" y2="130.4"/>
			<line class="st5" x1="323.8" y1="69.2" x2="323.8" y2="130.4"/>
			<path class="st5" d="M357.5,115.4"/>
			<path class="st6" d="M53.5,114.6"/>
			<path class="st6" d="M53.5,90.9"/>
			<path class="st6" d="M22.5,90.7l160.8,0v24.9l-160.8-0.2C22.5,115.4,22.7,90.7,22.5,90.7z"/>
			<line class="st5" x1="323.7" y1="90.8" x2="323.7" y2="115.3"/>
			<line class="st5" x1="291.6" y1="90.9" x2="291.6" y2="114.6"/>
			<path class="st5" d="M215.5,115.6"/>
			<path class="st5" d="M215.5,91.9"/>
		</g>
		<g>
			<text transform="matrix(1 0 0 1 19.5222 173.3858)" class="st4 st7 st8">buf</text>
		</g>
		<g>
			<g>
				<line class="st9" x1="22.2" y1="158.2" x2="22.2" y2="137.2"/>
				<g>
					<polygon class="st4" points="19.8,137.6 24.6,137.6 22.2,135.1 					"/>
				</g>
			</g>
		</g>
		<g>
			<text transform="matrix(1 0 0 1 178.1739 173.3858)" class="st4 st7 st8">len</text>
		</g>
		<g>
			<g>
				<line class="st9" x1="183.3" y1="158.2" x2="183.3" y2="137.2"/>
				<g>
					<polygon class="st4" points="180.9,137.6 185.7,137.6 183.3,135.1 					"/>
				</g>
			</g>
		</g>
		<g>
			<text transform="matrix(1 0 0 1 319.141 173.3858)" class="st4 st7 st8">size</text>
		</g>
		<g>
			<g>
				<line class="st9" x1="323.9" y1="158.2" x2="323.9" y2="137.2"/>
				<g>
					<polygon class="st4" points="321.5,137.6 326.3,137.6 323.9,135.1 					"/>
				</g>
			</g>
		</g>
		<g>
			<g>
				<text transform="matrix(1 0 0 1 80.6367 69.4458)" class="st10 st7 st8">data</text>
			</g>
			<g>
				<text transform="matrix(1 0 0 1 203.3455 69.4458)" class="st11 st7 st8">free space</text>
			</g>
			<g>
				<g>
					<line class="st12" x1="152.5" y1="76.3" x2="33.5" y2="76.3"/>
					<g>
						<polygon class="st10" points="33.8,78.7 33.8,73.8 31.4,76.3 						"/>
					</g>
				</g>
			</g>
			<g>
				<line class="st11" x1="143.4" y1="76.3" x2="174.4" y2="76.3"/>
				<g>
					<line class="st12" x1="143.4" y1="76.3" x2="172.3" y2="76.3"/>
					<g>
						<polygon class="st10" points="172,73.8 172,78.7 174.4,76.3 						"/>
					</g>
				</g>
			</g>
			<g>
				<g>
					<line class="st13" x1="283.9" y1="76.3" x2="312.8" y2="76.3"/>
					<g>
						<polygon class="st11" points="312.5,73.8 312.5,78.7 314.9,76.3 						"/>
					</g>
				</g>
			</g>
			<g>
				<g>
					<line class="st13" x1="285.8" y1="76.3" x2="196.8" y2="76.3"/>
					<g>
						<polygon class="st11" points="197.2,78.7 197.2,73.8 194.7,76.3 						"/>
					</g>
				</g>
			</g>
		</g>
	</g>
</g>
</svg>
