<?xml version="1.0" encoding="utf-8"?>
<!-- Generator: Adobe Illustrator 26.0.2, SVG Export Plug-In . SVG Version: 6.00 Build 0)  -->
<svg version="1.1" id="Layer_1" xmlns="http://www.w3.org/2000/svg" xmlns:xlink="http://www.w3.org/1999/xlink" x="0px" y="0px"
	 viewBox="0 0 869.6 127.5" style="enable-background:new 0 0 869.6 127.5;" xml:space="preserve">
<style type="text/css">
	.st0{opacity:0.2;fill:#00983A;enable-background:new    ;}
	.st1{fill:#F2F3F3;}
	.st2{fill:none;stroke:#7A8387;stroke-width:1.2;stroke-linecap:round;stroke-linejoin:round;}
	.st3{fill:#00983A;}
	.st4{fill:#F2F3F3;stroke:#7A8387;stroke-width:1.2;stroke-linecap:round;stroke-linejoin:round;}
	.st5{fill:none;stroke:#576174;stroke-width:1.2;stroke-linecap:round;stroke-linejoin:round;}
	.st6{fill:none;stroke:#576174;stroke-width:1.2;stroke-linecap:square;stroke-linejoin:round;}
	.st7{font-family:'Courier-Bold';}
	.st8{font-size:16.7604px;}
	.st9{fill:none;stroke:#00983A;stroke-linecap:round;stroke-linejoin:round;}
	.st10{fill:#7A8387;}
	.st11{fill:#576174;}
	.st12{fill:none;stroke:#576174;stroke-linecap:round;stroke-linejoin:round;}
	.st13{fill:none;stroke:#7A8387;stroke-linecap:round;stroke-linejoin:round;}
	.st14{fill:#333A45;}
</style>
<g>
	<g>
		<polyline class="st0" points="577.2,72.8 282.4,72.8 282.4,48 577.2,48 		"/>
		<g>
			<g>
				<g>
					<polyline class="st1" points="122.6,72.8 5.9,72.8 5.9,48 122.6,48 					"/>
					<polyline class="st2" points="831.51,72.8 5.5,72.8 5.5,48 831.51,48 					"/>
					<polyline class="st3" points="282.7,72.5 122.5,72.5 122.5,47.7 282.7,47.7 					"/>
					<line class="st2" x1="122.5" y1="26.6" x2="122.5" y2="87.8"/>
					<line class="st2" x1="283.3" y1="26.6" x2="283.3" y2="87.8"/>
					<line class="st2" x1="576.8" y1="26.6" x2="576.8" y2="87.8"/>
					<path class="st4" d="M831.51,72.8"/>
					<line class="st5" x1="153.5" y1="48.3" x2="153.5" y2="72"/>
					<line class="st2" x1="36.5" y1="48.3" x2="36.5" y2="72"/>
					<line class="st2" x1="67.6" y1="48.3" x2="67.6" y2="72"/>
					<line class="st5" x1="186" y1="48.3" x2="186" y2="72"/>
					<line class="st5" x1="218.4" y1="48.3" x2="218.4" y2="72"/>
					<line class="st5" x1="250.9" y1="48.3" x2="250.9" y2="72"/>
					<line class="st2" x1="315.9" y1="48.3" x2="315.9" y2="72"/>
					<line class="st2" x1="348.4" y1="48.3" x2="348.4" y2="72"/>
					<line class="st2" x1="381.2" y1="48.3" x2="381.2" y2="72"/>
					<line class="st2" x1="413.8" y1="48.3" x2="413.8" y2="72"/>
					<line class="st2" x1="446.3" y1="48.3" x2="446.3" y2="72"/>
					<line class="st2" x1="478.9" y1="48.3" x2="478.9" y2="72"/>
					<line class="st5" x1="511.51" y1="48.3" x2="511.51" y2="72"/>
					<line class="st2" x1="511.51" y1="48.3" x2="511.51" y2="72"/>
					<line class="st5" x1="544.01" y1="48.3" x2="544.01" y2="72"/>
					<line class="st2" x1="544.1" y1="48.3" x2="544.1" y2="72"/>
					<line class="st6" x1="283.3" y1="73" x2="122.5" y2="72.8"/>
					<line class="st6" x1="122.5" y1="48" x2="283.3" y2="48.1"/>
					<path class="st4" d="M385.5,73"/>
					<path class="st4" d="M385.5,49.3"/>
				</g>
				<g>
					<text transform="matrix(1 0 0 1 127.5176 105.8013)" class="st3 st7 st8">buf</text>
				</g>
				<g>
					<g>
						<line class="st9" x1="122.2" y1="105.6" x2="122.2" y2="94.6"/>
						<g>
							<polygon class="st3" points="119.8,94.9 124.6,94.9 122.2,92.5 							"/>
						</g>
					</g>
				</g>
				<g>
					<text transform="matrix(1 0 0 1 286.6495 105.8008)" class="st3 st7 st8">len=5</text>
				</g>
				<g>
					<g>
						<line class="st9" x1="283.3" y1="105.6" x2="283.3" y2="94.6"/>
						<g>
							<polygon class="st3" points="280.9,94.9 285.8,94.9 283.3,92.5 							"/>
						</g>
					</g>
				</g>
				<g>
					<text transform="matrix(1 0 0 1 581.4624 105.8013)" class="st3 st7 st8">size=16</text>
				</g>
				<g>
					<g>
						<line class="st9" x1="576.9" y1="105.6" x2="576.9" y2="94.6"/>
						<g>
							<polygon class="st3" points="574.51,94.9 579.4,94.9 576.9,92.5 							"/>
						</g>
					</g>
				</g>
				<g>
					<path class="st10" d="M687.51,60.7c0,0.9-0.7,1.6-1.6,1.6s-1.6-0.7-1.6-1.6c0-0.9,0.7-1.6,1.6-1.6S687.51,59.9,687.51,60.7z"/>
					<path class="st10" d="M701.2,60.7c0,0.9-0.7,1.6-1.6,1.6s-1.6-0.7-1.6-1.6c0-0.9,0.7-1.6,1.6-1.6S701.2,59.9,701.2,60.7z"/>
					<path class="st10" d="M714.9,60.7c0,0.9-0.7,1.6-1.6,1.6c-0.9,0-1.6-0.7-1.6-1.6c0-0.9,0.7-1.6,1.6-1.6
						C714.2,59.1,714.9,59.9,714.9,60.7z"/>
					<path class="st10" d="M728.7,60.7c0,0.9-0.7,1.6-1.6,1.6s-1.6-0.7-1.6-1.6c0-0.9,0.7-1.6,1.6-1.6
						C728.01,59.1,728.7,59.9,728.7,60.7z"/>
				</g>
				<g>
					<path class="st10" d="M82.8,60.7c0,0.9-0.7,1.6-1.6,1.6s-1.6-0.7-1.6-1.6c0-0.9,0.7-1.6,1.6-1.6S82.8,59.9,82.8,60.7z"/>
					<path class="st10" d="M96.5,60.7c0,0.9-0.7,1.6-1.6,1.6s-1.6-0.7-1.6-1.6c0-0.9,0.7-1.6,1.6-1.6C95.8,59.1,96.5,59.9,96.5,60.7
						z"/>
					<path class="st10" d="M110.2,60.7c0,0.9-0.7,1.6-1.6,1.6s-1.6-0.7-1.6-1.6c0-0.9,0.7-1.6,1.6-1.6S110.2,59.9,110.2,60.7z"/>
				</g>
				<g>
					<g>
						<text transform="matrix(1 0 0 1 180.6541 26.8123)" class="st11 st7 st8">data</text>
					</g>
					<g>
						<text transform="matrix(1 0 0 1 387.363 26.8123)" class="st10 st7 st8">free space</text>
					</g>
					<g>
						<g>
							<line class="st12" x1="272.2" y1="33.6" x2="133.5" y2="33.6"/>
							<g>
								<polygon class="st11" points="271.9,36.2 273.5,33.6 271.9,31.1 271.8,31.1 271.8,36.2 								"/>
							</g>
							<g>
								<polygon class="st11" points="133.8,36.1 133.8,31.2 131.4,33.6 								"/>
							</g>
						</g>
					</g>
					<g>
						<g>
							<line class="st13" x1="563.7" y1="33.6" x2="295.9" y2="33.6"/>
							<g>
								<polygon class="st10" points="563.4,36.1 563.4,31.2 565.8,33.6 								"/>
							</g>
							<g>
								<polygon class="st10" points="296.2,36.1 296.2,31.2 293.7,33.6 								"/>
							</g>
						</g>
					</g>
					<g>
						<text transform="matrix(1 0 0 1 615.4679 25.1898)" class="st10 st7 st8">non-allocated space</text>
					</g>
					<g>
						<g>
							<line class="st13" x1="593.7" y1="33.6" x2="829.7" y2="33.6"/>
							<g>
								<polygon class="st10" points="829.4,31.2 829.4,36.1 831.8,33.6 								"/>
							</g>
						</g>
					</g>
					<g>
						<g>
							<line class="st13" x1="678.7" y1="33.6" x2="589.7" y2="33.6"/>
							<g>
								<polygon class="st10" points="590.01,36.1 590.01,31.2 587.6,33.6 								"/>
							</g>
						</g>
					</g>
				</g>
				<g>
					<g>
						<text transform="matrix(1 0 0 1 133.1212 64.9593)" class="st14 st7 st8">h</text>
					</g>
				</g>
				<g>
					<g>
						<text transform="matrix(1 0 0 1 165.1564 64.9593)" class="st14 st7 st8">e</text>
					</g>
				</g>
				<g>
					<g>
						<text transform="matrix(1 0 0 1 196.8744 64.9593)" class="st14 st7 st8">l</text>
					</g>
				</g>
				<g>
					<g>
						<text transform="matrix(1 0 0 1 229.8611 64.9593)" class="st14 st7 st8">l</text>
					</g>
				</g>
				<g>
					<g>
						<text transform="matrix(1 0 0 1 262.2135 64.9593)" class="st14 st7 st8">o</text>
					</g>
				</g>
			</g>
		</g>
	</g>
	<g>
		<text transform="matrix(1 0 0 1 1.811981e-04 105.8011)" class="st3 st7 st8">0</text>
	</g>
	<line class="st2" x1="5.5" y1="26.4" x2="5.5" y2="87.6"/>
</g>
</svg>
