<?xml version="1.0" encoding="utf-8"?>
<!-- Generator: Adobe Illustrator 26.0.2, SVG Export Plug-In . SVG Version: 6.00 Build 0)  -->
<svg version="1.1" id="Layer_1" xmlns="http://www.w3.org/2000/svg" xmlns:xlink="http://www.w3.org/1999/xlink" x="0px" y="0px"
	 viewBox="0 0 869 124.66" style="enable-background:new 0 0 869 124.66;" xml:space="preserve">
<style type="text/css">
	.st0{fill:#F2F3F3;stroke:#7A8387;stroke-width:1.2;stroke-linecap:round;stroke-linejoin:round;}
	.st1{fill:none;stroke:#7A8387;stroke-width:1.2;stroke-linecap:round;stroke-linejoin:round;}
	.st2{fill:#00983A;}
	.st3{font-family:'Courier-Bold';}
	.st4{font-size:16.7604px;}
	.st5{fill:none;stroke:#00983A;stroke-linecap:round;stroke-linejoin:round;}
	.st6{fill:#7A8387;}
</style>
<g>
	<g>
		<g>
			<polyline class="st0" points="830.92,78.4 5.52,78.4 5.52,53.7 830.92,53.6 			"/>
			<line class="st1" x1="5.52" y1="32.2" x2="5.52" y2="93.4"/>
			<path class="st0" d="M830.92,78.4"/>
			<line class="st1" x1="36.52" y1="53.9" x2="36.52" y2="77.6"/>
			<line class="st1" x1="68.92" y1="53.9" x2="68.92" y2="77.6"/>
			<line class="st1" x1="101.42" y1="53.9" x2="101.42" y2="77.6"/>
			<line class="st1" x1="133.72" y1="53.9" x2="133.72" y2="77.6"/>
			<line class="st1" x1="166.22" y1="53.9" x2="166.22" y2="77.6"/>
			<line class="st1" x1="198.52" y1="54.6" x2="198.52" y2="78.3"/>
			<line class="st1" x1="230.92" y1="54.6" x2="230.92" y2="78.3"/>
		</g>
		<g>
			<text transform="matrix(1 0 0 1 59.1908 40.8585)" class="st2 st3 st4">buf=NULL, len=0, size=0 </text>
		</g>
		<g>
			<text transform="matrix(1 0 0 1 -1.811981e-04 109.9024)" class="st2 st3 st4">0</text>
		</g>
		<g>
			<g>
				<g>
					<line class="st5" x1="46.72" y1="37.7" x2="17.72" y2="37.7"/>
					<g>
						<polygon class="st2" points="18.12,40.1 18.12,35.2 15.62,37.7 						"/>
					</g>
				</g>
			</g>
		</g>
		<g>
			<path class="st6" d="M511.52,66.4c0,0.9-0.7,1.6-1.6,1.6s-1.6-0.7-1.6-1.6s0.7-1.6,1.6-1.6S511.52,65.5,511.52,66.4z"/>
			<path class="st6" d="M525.32,66.4c0,0.9-0.7,1.6-1.6,1.6s-1.6-0.7-1.6-1.6s0.7-1.6,1.6-1.6S525.32,65.5,525.32,66.4z"/>
			<path class="st6" d="M539.02,66.4c0,0.9-0.7,1.6-1.6,1.6c-0.9,0-1.6-0.7-1.6-1.6s0.7-1.6,1.6-1.6S539.02,65.5,539.02,66.4z"/>
			<path class="st6" d="M552.82,66.4c0,0.9-0.7,1.6-1.6,1.6s-1.6-0.7-1.6-1.6s0.7-1.6,1.6-1.6S552.82,65.5,552.82,66.4z"/>
		</g>
	</g>
</g>
</svg>
