<?xml version="1.0" encoding="utf-8"?>
<!-- Generator: Adobe Illustrator 26.0.2, SVG Export Plug-In . SVG Version: 6.00 Build 0)  -->
<svg version="1.1" id="Layer_1" xmlns="http://www.w3.org/2000/svg" xmlns:xlink="http://www.w3.org/1999/xlink" x="0px" y="0px"
	 viewBox="0 0 869.6 185.67" style="enable-background:new 0 0 869.6 185.67;" xml:space="preserve">
<style type="text/css">
	.st0{font-family:'Arial-BoldMT';}
	.st1{font-size:24px;}
	.st2{opacity:0.2;fill:#00983A;enable-background:new    ;}
	.st3{fill:none;stroke:#7A8387;stroke-width:1.2;stroke-linecap:round;stroke-linejoin:round;}
	.st4{fill:#00983A;}
	.st5{fill:none;stroke:#576174;stroke-miterlimit:10;}
	.st6{fill:#F2F3F3;stroke:#7A8387;stroke-width:1.2;stroke-linecap:round;stroke-linejoin:round;}
	.st7{fill:none;stroke:#576174;stroke-width:1.2;stroke-linecap:round;stroke-linejoin:round;}
	.st8{font-family:'Courier-Bold';}
	.st9{font-size:16.7604px;}
	.st10{fill:none;stroke:#00983A;stroke-linecap:round;stroke-linejoin:round;}
	.st11{fill:#576174;}
	.st12{font-family:'Courier';}
	.st13{fill:none;}
	.st14{fill:#7A8387;}
</style>
<g>
	<text transform="matrix(1 0 0 1 1.0956 32.4549)" class="st0 st1">Memory</text>
	<polyline class="st2" points="424.58,115.4 219.88,115.4 219.88,90.7 424.58,90.7 	"/>
	<g>
		<g>
			<g>
				<polyline class="st3" points="458.98,115.4 218.98,115.4 218.98,90.7 458.98,90.7 				"/>
				<polyline class="st4" points="219.18,115.1 2.98,115.1 2.98,91.3 219.18,91.3 				"/>
				<line class="st3" x1="2.98" y1="69.2" x2="2.98" y2="130.4"/>
				<line class="st5" x1="219.78" y1="69.2" x2="219.78" y2="130.4"/>
				<line class="st5" x1="425.28" y1="69.2" x2="425.28" y2="130.4"/>
				<path class="st6" d="M458.98,115.4"/>
				<path class="st7" d="M33.98,114.6"/>
				<path class="st7" d="M33.98,90.9"/>
				<path class="st7" d="M2.98,90.7h216.8v24.9l-216.8-0.2C2.98,115.4,3.18,90.7,2.98,90.7z"/>
				<line class="st3" x1="425.18" y1="90.8" x2="425.18" y2="115.3"/>
				<path class="st6" d="M251.98,115.6"/>
				<path class="st6" d="M251.98,91.9"/>
			</g>
			<g>
				<text transform="matrix(1 0 0 1 -2.290726e-04 175.3858)" class="st4 st8 st9">buf</text>
			</g>
			<g>
				<g>
					<line class="st10" x1="2.68" y1="158.2" x2="2.68" y2="137.2"/>
					<g>
						<polygon class="st4" points="0.28,137.6 5.08,137.6 2.68,135.1 						"/>
					</g>
				</g>
			</g>
			<g>
				<g>
					<text transform="matrix(1 0 0 1 214.6515 175.3858)" class="st4 st8 st9">len</text>
				</g>
			</g>
			<g>
				<g>
					<line class="st10" x1="219.78" y1="158.2" x2="219.78" y2="137.2"/>
					<g>
						<polygon class="st4" points="217.38,137.6 222.18,137.6 219.78,135.1 						"/>
					</g>
				</g>
			</g>
			<g>
				<g>
					<text transform="matrix(1 0 0 1 421.6186 175.3858)" class="st4 st8 st9">size</text>
				</g>
			</g>
			<g>
				<g>
					<line class="st10" x1="425.38" y1="158.2" x2="425.38" y2="137.2"/>
					<g>
						<polygon class="st4" points="422.98,137.6 427.78,137.6 425.38,135.1 						"/>
					</g>
				</g>
			</g>
			<g>
				<g>
					<text transform="matrix(1 0 0 1 93.1143 69.4458)" class="st11 st12 st9">data</text>
				</g>
				<g>
					<g>
						<text transform="matrix(1 0 0 1 273.8231 69.4458)" class="st11 st12 st9">free space</text>
					</g>
				</g>
				<g>
					<g>
						<line class="st5" x1="132.98" y1="76.3" x2="13.98" y2="76.3"/>
						<g>
							<polygon class="st11" points="14.28,78.7 14.28,73.8 11.88,76.3 							"/>
						</g>
					</g>
				</g>
				<g>
					<line class="st13" x1="123.88" y1="76.3" x2="210.88" y2="76.3"/>
					<g>
						<line class="st5" x1="123.88" y1="76.3" x2="208.78" y2="76.3"/>
						<g>
							<polygon class="st11" points="208.48,73.8 208.48,78.7 210.88,76.3 							"/>
						</g>
					</g>
				</g>
				<g>
					<g>
						<line class="st5" x1="320.38" y1="76.3" x2="414.28" y2="76.3"/>
						<g>
							<polygon class="st14" points="413.98,73.8 413.98,78.7 416.38,76.3 							"/>
						</g>
					</g>
				</g>
				<g>
					<g>
						<line class="st5" x1="322.28" y1="76.3" x2="233.28" y2="76.3"/>
						<g>
							<polygon class="st14" points="233.68,78.7 233.68,73.8 231.18,76.3 							"/>
						</g>
					</g>
				</g>
			</g>
		</g>
	</g>
</g>
</svg>
