<svg id="Layer_1" data-name="Layer 1" xmlns="http://www.w3.org/2000/svg" xmlns:xlink="http://www.w3.org/1999/xlink" viewBox="0 0 619.3 157.7"><defs><style>.cls-1{fill:#8a8c8e;}.cls-2{fill:#9e9b83;}.cls-22,.cls-3{font-size:11px;}.cls-21,.cls-3{fill:#9e8900;}.cls-11,.cls-19,.cls-22,.cls-23,.cls-3,.cls-4,.cls-6{font-family:Courier-Bold, Courier;font-weight:700;}.cls-4,.cls-6{font-size:18px;}.cls-22,.cls-4,.cls-8{fill:#576174;}.cls-5{fill:#8b005d;}.cls-11,.cls-6{isolation:isolate;}.cls-11,.cls-19,.cls-23,.cls-24,.cls-6{fill:#fff;}.cls-7{fill:none;stroke:#576174;stroke-linecap:round;stroke-linejoin:round;stroke-width:2.79px;}.cls-9{fill:#45cfff;}.cls-10{fill:#277691;}.cls-11,.cls-19{font-size:9px;}.cls-12{fill:#00983a;}.cls-13{fill:#005721;}.cls-14{fill:#ea5b0c;}.cls-15{fill:#963b08;}.cls-16{fill:#59008f;}.cls-17{fill:url(#linear-gradient);}.cls-18{fill:#7300b8;}.cls-20{fill:#ffde00;}.cls-23{font-size:12px;}.cls-24{fill-opacity:0.1;}</style><linearGradient id="linear-gradient" x1="57.65" y1="170.28" x2="141.06" y2="170.28" gradientUnits="userSpaceOnUse"><stop offset="0" stop-color="#a000ff"/><stop offset="1" stop-color="#c96eff"/></linearGradient></defs><path class="cls-1" d="M510.8,145.7l-5.1-5v3.6h-79a1.4,1.4,0,0,0-1.4,1.4,1.4,1.4,0,0,0,1.4,1.4h79v3.7Z" transform="translate(-56.3 -70.9)"/><path class="cls-2" d="M404.7,110.3v90.3a2.6,2.6,0,0,1-2.5,2.6H323.9c-3,0-6.9-5-6.9-6.4L321.4,93c0-1.4.8-7.4,2.2-7.4h55.8Z" transform="translate(-56.3 -70.9)"/><text class="cls-3" transform="translate(271.7 79)">packed_fs.c</text><text class="cls-4" transform="translate(168.4 62.4)">PACK</text><text class="cls-4" transform="translate(382.1 62.4)">BUILD</text><rect class="cls-5" x="482.3" y="19.5" width="137" height="106.64" rx="12.9"/><text class="cls-6" transform="translate(513.1 77.5)">App.exe</text><path class="cls-1" d="M292.2,145.4l-5.1-5.1V144h-79a1.5,1.5,0,0,0-1.4,1.4,1.4,1.4,0,0,0,1.4,1.4h79v3.7Z" transform="translate(-56.3 -70.9)"/><line class="cls-7" x1="151.5" y1="72.8" x2="231.2" y2="72.8"/><polygon class="cls-8" points="230.5 67.7 230.5 77.9 235.6 72.8 230.5 67.7"/><line class="cls-7" x1="370.3" y1="72.8" x2="450" y2="72.8"/><polygon class="cls-8" points="449.3 67.7 449.3 77.9 454.4 72.8 449.3 67.7"/><path class="cls-9" d="M184.1,93.6v87.5a2.6,2.6,0,0,1-2.6,2.5H103.2a2.5,2.5,0,0,1-2.5-2.5V73.5a2.6,2.6,0,0,1,2.5-2.6h58Z" transform="translate(-56.3 -70.9)"/><path class="cls-10" d="M184.2,93.8H163.7a2.6,2.6,0,0,1-2.5-2.6V70.9h0l22.9,22.7Z" transform="translate(-56.3 -70.9)"/><text class="cls-11" transform="translate(53.1 9.7)">filex.y</text><path class="cls-12" d="M168.1,107.6v87.5a2.6,2.6,0,0,1-2.6,2.5H87.2a2.5,2.5,0,0,1-2.5-2.5V87.5a2.6,2.6,0,0,1,2.5-2.6h58Z" transform="translate(-56.3 -70.9)"/><path class="cls-13" d="M168.2,107.8H147.7a2.6,2.6,0,0,1-2.5-2.6V84.9h0l22.9,22.7Z" transform="translate(-56.3 -70.9)"/><text class="cls-11" transform="translate(37.1 23.7)">main.js</text><path class="cls-14" d="M153.1,121.6v87.5a2.6,2.6,0,0,1-2.6,2.5H72.2a2.5,2.5,0,0,1-2.5-2.5V101.5a2.6,2.6,0,0,1,2.5-2.6h58Z" transform="translate(-56.3 -70.9)"/><path class="cls-15" d="M153.2,121.8H132.7a2.6,2.6,0,0,1-2.5-2.6V98.9h0l22.9,22.7Z" transform="translate(-56.3 -70.9)"/><text class="cls-11" transform="translate(20.5 38.1)">style.css</text><path class="cls-16" d="M143.1,138.6v87.5a2.6,2.6,0,0,1-2.6,2.5H62.2a2.5,2.5,0,0,1-2.5-2.5V118.5a2.6,2.6,0,0,1,2.5-2.6h58Z" transform="translate(-56.3 -70.9)"/><path class="cls-17" d="M141.1,136.6v87.5a2.6,2.6,0,0,1-2.6,2.5H60.2a2.5,2.5,0,0,1-2.5-2.5V116.5a2.6,2.6,0,0,1,2.5-2.6h58Z" transform="translate(-56.3 -70.9)"/><path class="cls-16" d="M141.4,138.4H120.8a2.6,2.6,0,0,1-2.6-2.5V113.9l22.9,22.7Z" transform="translate(-56.3 -70.9)"/><path class="cls-18" d="M141.2,136.8H120.7a2.6,2.6,0,0,1-2.5-2.6V113.9h0l22.9,22.7Z" transform="translate(-56.3 -70.9)"/><text class="cls-19" transform="translate(5.3 55.9)">index.html</text><path class="cls-20" d="M400.1,108.2v87.4a2.6,2.6,0,0,1-2.6,2.6H319.2a2.6,2.6,0,0,1-2.6-2.6V88.1a2.6,2.6,0,0,1,2.6-2.6h58Z" transform="translate(-56.3 -70.9)"/><path class="cls-2" d="M400.1,110.3H381.7a2.5,2.5,0,0,1-2.5-2.5V87.5h0l20.9,20.7Z" transform="translate(-56.3 -70.9)"/><polygon class="cls-2" points="323.7 38.8 321.3 36.4 324.8 35.9 323.7 38.8"/><path class="cls-21" d="M400.2,108.3H379.7a2.5,2.5,0,0,1-2.5-2.5V85.5h0l22.9,22.7Z" transform="translate(-56.3 -70.9)"/><text class="cls-22" transform="translate(266.7 74)">packed_fs.c</text><polygon class="cls-1" points="373.1 125.5 285.8 125.5 282.8 122.5 285.8 91.8 369.9 88.8 373.1 91.8 373.1 125.5"/><rect class="cls-8" x="282.8" y="88.8" width="87.3" height="33.68"/><text class="cls-23" transform="translate(288.6 100.8)">mg-unpack()</text><text class="cls-23" transform="translate(288.6 116)">mg-unlist()</text><path class="cls-24" d="M56.3,156.4c9.4.6,36.7,1.1,53.2,10.6,25.1,14.4,31.2,33.8,31.2,33.8l.4,25.4H56.3Z" transform="translate(-56.3 -70.9)"/></svg>