<?xml version="1.0" encoding="utf-8"?>
<!-- Generator: Adobe Illustrator 25.0.0, SVG Export Plug-In . SVG Version: 6.00 Build 0)  -->
<svg version="1.1" id="Layer_1" xmlns="http://www.w3.org/2000/svg" xmlns:xlink="http://www.w3.org/1999/xlink" x="0px" y="0px"
	 viewBox="0 0 858.5 424.3" style="enable-background:new 0 0 858.5 424.3;" xml:space="preserve">
<style type="text/css">
	.st0{fill:#9E9B83;}
	.st1{fill:#9E8900;}
	.st2{font-family:Arial;font-weight:bold;}
	.st3{font-size:11px;}
	.st4{display:none;fill:#576174;}
	.st5{fill:#1F5F75;}
	.st6{clip-path:url(#SVGID_3_);fill:#FFFFFF;fill-opacity:0.1;}
	.st7{fill:#277691;}
	.st8{fill:#FFFFFF;}
	.st9{font-family:Arial;font-weight:bold;}
	.st10{fill:#004219;}
	.st11{clip-path:url(#SVGID_6_);fill:#FFFFFF;fill-opacity:0.1;}
	.st12{fill:#005721;}
	.st13{fill:url(#SVGID_7_);}
	.st14{clip-path:url(#XMLID_13_);fill:#FFFFFF;fill-opacity:0.1;}
	.st15{fill:#752E06;}
	.st16{fill:#963B08;}
	.st17{fill:#59008F;}
	.st18{clip-path:url(#XMLID_15_);fill:#FFFFFF;fill-opacity:0.1;}
	.st19{fill:#7300B8;}
	.st20{fill:#FFDE00;}
	.st21{fill:#576174;}
	.st22{font-size:13px;}
	.st23{fill:#8A8C8E;}
	.st24{font-size:12px;}
	.st25{opacity:0.69;}
	.st26{fill:#B3B1B3;}
	.st27{clip-path:url(#XMLID_17_);fill:#FFFFFF;fill-opacity:0.1;}
	.st28{fill:#919091;}
	.st29{fill:#BFBEBF;}
	.st30{fill:#454445;}
	.st31{font-size:9px;}
	.st32{clip-path:url(#XMLID_19_);fill:#FFFFFF;fill-opacity:0.1;}
	.st33{fill:#8695B3;}
	.st34{fill:url(#SVGID_8_);}
	.st35{font-size:18px;}
	.st36{clip-path:url(#XMLID_20_);fill:#610041;fill-opacity:0.1;}
	.st37{fill:#610041;}
	.st38{clip-path:url(#XMLID_22_);fill:url(#SVGID_9_);fill-opacity:0.1;}
	.st39{fill:none;stroke:#86005B;stroke-width:0.5;stroke-linecap:round;stroke-miterlimit:10;}
	.st40{fill:none;stroke:#86005B;stroke-width:0.75;stroke-linecap:round;stroke-miterlimit:10;}
	.st41{fill:url(#SVGID_10_);}
	.st42{fill:url(#SVGID_11_);}
	.st43{fill:#610042;}
	.st44{fill:url(#SVGID_12_);}
</style>
<g>
	<g>
		<path class="st0" d="M457.9,111.2l0.1,87.3c0,1.4-1.1,2.6-2.5,2.6h-76.3c-4.4-0.2-7.3-3.9-7.3-5.3l4.7-101.8
			c0-1.4,0.8-7.4,2.2-7.4l54-0.1L457.9,111.2z"/>
	</g>
	<g>
		<text transform="matrix(1 0 0 1 383.2604 149.9447)" class="st1 st2 st3">packed_fs.c</text>
	</g>
</g>
<rect x="84" y="25" class="st4" width="727.7" height="429.8"/>
<g>
	<g>
		<path class="st5" d="M207.5,104.6v87.4c0,1.4-1.1,2.6-2.5,2.6h-78.3c-1.4,0-2.5-1.1-2.5-2.6V84.5c0-1.4,1.1-2.5,2.5-2.5h58
			L207.5,104.6z"/>
		<g>
			<defs>
				<path id="SVGID_1_" d="M205.5,102.6v87.4c0,1.4-1.1,2.6-2.5,2.6h-78.3c-1.4,0-2.5-1.1-2.5-2.6v-57.5V82.5c0-1.4,1.1-2.5,2.5-2.5
					h58L205.5,102.6z"/>
			</defs>
			<linearGradient id="SVGID_2_" gradientUnits="userSpaceOnUse" x1="122.1091" y1="136.2824" x2="205.5191" y2="136.2824">
				<stop  offset="0" style="stop-color:#45CFFF"/>
				<stop  offset="1" style="stop-color:#85DDFA"/>
			</linearGradient>
			<use xlink:href="#SVGID_1_"  style="overflow:visible;fill:url(#SVGID_2_);"/>
			<clipPath id="SVGID_3_">
				<use xlink:href="#SVGID_1_"  style="overflow:visible;"/>
			</clipPath>
			<path class="st6" d="M121.4,101.4c9.4,0.7,36.6,1.5,53.2,14.7c25,20,31.2,47.1,31.2,47.1l0.4,35.3l-84.8,0.2V101.4z"/>
		</g>
		<path class="st5" d="M205.9,104.4l-20.6,0c-1.4,0-2.6-1.2-2.6-2.6l0-21.8l22.9,22.7L205.9,104.4z"/>
		<path class="st7" d="M205.7,102.8h-20.5c-1.4,0-2.5-1.1-2.5-2.5V79.9l0,0l22.9,22.7L205.7,102.8z"/>
		<g>
			<text transform="matrix(1 0 0 1 129.0689 92.8531)" class="st8 st9 st3">filex.y</text>
		</g>
	</g>
	<g>
		<path class="st10" d="M191.4,121.6V209c0,1.4-1.1,2.6-2.5,2.6h-78.3c-1.4,0-2.5-1.1-2.5-2.6V101.4c0-1.4,1.1-2.5,2.5-2.5h58
			L191.4,121.6z"/>
		<g>
			<defs>
				<path id="SVGID_4_" d="M189.4,119.6V207c0,1.4-1.1,2.6-2.5,2.6h-78.3c-1.4,0-2.5-1.1-2.5-2.6v-57.5V99.4c0-1.4,1.1-2.5,2.5-2.5
					h58L189.4,119.6z"/>
			</defs>
			<linearGradient id="SVGID_5_" gradientUnits="userSpaceOnUse" x1="106.0386" y1="153.2384" x2="189.4486" y2="153.2384">
				<stop  offset="0" style="stop-color:#00983A"/>
				<stop  offset="1" style="stop-color:#3A985D"/>
			</linearGradient>
			<use xlink:href="#SVGID_4_"  style="overflow:visible;fill:url(#SVGID_5_);"/>
			<clipPath id="SVGID_6_">
				<use xlink:href="#SVGID_4_"  style="overflow:visible;"/>
			</clipPath>
			<path class="st11" d="M105.3,118.3c9.4,0.7,36.6,1.5,53.2,14.7c25,20,31.2,47.1,31.2,47.1l0.4,35.3l-84.8,0.2V118.3z"/>
		</g>
		<path class="st10" d="M189.8,121.3l-20.6,0c-1.4,0-2.6-1.2-2.6-2.6l0-21.8l22.9,22.7L189.8,121.3z"/>
		<path class="st12" d="M189.6,119.7h-20.5c-1.4,0-2.5-1.1-2.5-2.5V96.9l0,0l22.9,22.7L189.6,119.7z"/>
		<g>
			<text transform="matrix(1 0 0 1 113.9984 109.809)" class="st8 st9 st3">main.js</text>
		</g>
	</g>
	<g>
		<linearGradient id="SVGID_7_" gradientUnits="userSpaceOnUse" x1="93.2369" y1="173.2516" x2="176.6469" y2="173.2516">
			<stop  offset="0" style="stop-color:#EA5B0C"/>
			<stop  offset="1" style="stop-color:#EA671E"/>
		</linearGradient>
		<path class="st13" d="M176.6,139.6V227c0,1.4-1.1,2.6-2.5,2.6H95.8c-1.4,0-2.5-1.1-2.5-2.6V119.5c0-1.4,1.1-2.5,2.5-2.5h58
			L176.6,139.6z"/>
		<g>
			<defs>
				<path id="XMLID_2_" d="M174.6,137.6V225c0,1.4-1.1,2.6-2.5,2.6H93.8c-1.4,0-2.5-1.1-2.5-2.6v-57.5v-50.1c0-1.4,1.1-2.5,2.5-2.5
					h58L174.6,137.6z"/>
			</defs>
			<linearGradient id="XMLID_12_" gradientUnits="userSpaceOnUse" x1="91.2369" y1="171.2516" x2="174.6469" y2="171.2516">
				<stop  offset="0" style="stop-color:#EA5B0C"/>
				<stop  offset="1" style="stop-color:#EA7B3D"/>
			</linearGradient>
			<use xlink:href="#XMLID_2_"  style="overflow:visible;fill:url(#XMLID_12_);"/>
			<clipPath id="XMLID_13_">
				<use xlink:href="#XMLID_2_"  style="overflow:visible;"/>
			</clipPath>
			<path class="st14" d="M90.5,136.3c9.4,0.7,36.6,1.5,53.2,14.7c25,20,31.2,47.1,31.2,47.1l0.4,35.3l-84.8,0.2V136.3z"/>
		</g>
		<path class="st15" d="M175,139.3l-20.6,0c-1.4,0-2.6-1.2-2.6-2.6l0-21.8l22.9,22.7L175,139.3z"/>
		<path class="st16" d="M174.8,137.7h-20.5c-1.4,0-2.5-1.1-2.5-2.5v-20.3l0,0l22.9,22.7L174.8,137.7z"/>
		<g>
			<text transform="matrix(1 0 0 1 97.1967 127.8222)" class="st8 st9 st3">style.css</text>
		</g>
	</g>
	<g>
		<path class="st17" d="M164.6,157.7v87.4c0,1.4-1.1,2.6-2.5,2.6H83.8c-1.4,0-2.5-1.1-2.5-2.6V137.5c0-1.4,1.1-2.5,2.5-2.5h58
			L164.6,157.7z"/>
		<g>
			<defs>
				<path id="XMLID_1_" d="M162.6,155.7v87.4c0,1.4-1.1,2.6-2.5,2.6H81.8c-1.4,0-2.5-1.1-2.5-2.6v-57.5v-50.1c0-1.4,1.1-2.5,2.5-2.5
					h58L162.6,155.7z"/>
			</defs>
			<linearGradient id="XMLID_14_" gradientUnits="userSpaceOnUse" x1="79.2009" y1="189.3131" x2="162.6108" y2="189.3131">
				<stop  offset="0" style="stop-color:#A000FF"/>
				<stop  offset="1" style="stop-color:#C96EFF"/>
			</linearGradient>
			<use xlink:href="#XMLID_1_"  style="overflow:visible;fill:url(#XMLID_14_);"/>
			<clipPath id="XMLID_15_">
				<use xlink:href="#XMLID_1_"  style="overflow:visible;"/>
			</clipPath>
			<path class="st18" d="M78.5,154.4c9.4,0.7,36.6,1.5,53.2,14.7c25,20,31.2,47.1,31.2,47.1l0.4,35.3l-84.8,0.2V154.4z"/>
		</g>
		<path class="st17" d="M163,157.4l-20.6,0c-1.4,0-2.6-1.2-2.6-2.6l0-21.8l22.9,22.7L163,157.4z"/>
		<path class="st19" d="M162.8,155.8h-20.5c-1.4,0-2.5-1.1-2.5-2.5V133l0,0l22.9,22.7L162.8,155.8z"/>
		<g>
			<text transform="matrix(1 0 0 1 83.1607 145.8838)" class="st8 st9 st3">index.html</text>
		</g>
	</g>
</g>
<g>
	<g>
		<path class="st20" d="M455.2,108.2v87.4c0,1.4-1.1,2.6-2.5,2.6h-78.3c-1.4,0-2.5-1.1-2.5-2.6V88.1c0-1.4,1.1-2.5,2.5-2.5h58
			L455.2,108.2z"/>
		<path class="st0" d="M455.3,110.3l-18.4,0c-1.4,0-2.5-1.1-2.5-2.5V87.5l0,0l20.9,20.7L455.3,110.3z"/>
		<polygon class="st0" points="435.2,109.7 432.9,107.3 436.3,106.9 		"/>
		<path class="st1" d="M455.4,108.3h-20.5c-1.4,0-2.5-1.1-2.5-2.5V85.5l0,0l22.9,22.7L455.4,108.3z"/>
	</g>
	<g>
		<text transform="matrix(1 0 0 1 379.2604 144.9447)" class="st21 st9 st22">packed_fs.c</text>
	</g>
</g>
<g>
	<polygon class="st23" points="483.6,195.4 397.3,195.4 394.3,193.4 397.3,162.8 481.5,159.7 483.6,162.8 	"/>
	<rect x="394.3" y="159.8" class="st21" width="87.3" height="33.7"/>
	<g>
		<g>
			<text transform="matrix(1 0 0 1 400.0845 171.7588)" class="st8 st9 st24">mg_unpack()</text>
		</g>
		<g>
			<text transform="matrix(1 0 0 1 400.0845 186.935)" class="st8 st9 st24">mg_unlist()</text>
		</g>
	</g>
</g>
<g class="st25">
	<g>
		<path class="st26" d="M467.7,256.6V344c0,1.4-1.1,2.6-2.5,2.6h-78.3c-1.4,0-2.5-1.1-2.5-2.6V236.4c0-1.4,1.1-2.5,2.5-2.5h58
			L467.7,256.6z"/>
		<g>
			<defs>
				<path id="XMLID_9_" d="M465.7,254.6V342c0,1.4-1.1,2.6-2.5,2.6h-78.3c-1.4,0-2.5-1.1-2.5-2.6v-57.5v-50.1c0-1.4,1.1-2.5,2.5-2.5
					h58L465.7,254.6z"/>
			</defs>
			<linearGradient id="XMLID_16_" gradientUnits="userSpaceOnUse" x1="382.3115" y1="288.2073" x2="465.7215" y2="288.2073">
				<stop  offset="0" style="stop-color:#D6D4D6"/>
				<stop  offset="1" style="stop-color:#FFFDFE"/>
			</linearGradient>
			<use xlink:href="#XMLID_9_"  style="overflow:visible;fill:url(#XMLID_16_);"/>
			<clipPath id="XMLID_17_">
				<use xlink:href="#XMLID_9_"  style="overflow:visible;"/>
			</clipPath>
			<path class="st27" d="M381.6,253.3c9.4,0.7,36.6,1.5,53.2,14.7c25,20,31.2,47.1,31.2,47.1l0.4,35.3l-84.8,0.2V253.3z"/>
		</g>
		<path class="st28" d="M466.1,256.3l-20.6,0c-1.4,0-2.6-1.2-2.6-2.6l0-21.8l22.9,22.7L466.1,256.3z"/>
		<path class="st29" d="M465.9,254.7h-20.5c-1.4,0-2.5-1.1-2.5-2.5v-20.3l0,0l22.9,22.7L465.9,254.7z"/>
		<text transform="matrix(1 0 0 1 386.2713 244.7779)" class="st30 st9 st31">mongoose.c</text>
	</g>
	<g>
		<path class="st26" d="M455.7,276.6v87.4c0,1.4-1.1,2.6-2.5,2.6h-78.3c-1.4,0-2.5-1.1-2.5-2.6V256.5c0-1.4,1.1-2.5,2.5-2.5h58
			L455.7,276.6z"/>
		<g>
			<defs>
				<path id="XMLID_8_" d="M453.7,274.6v87.4c0,1.4-1.1,2.6-2.5,2.6h-78.3c-1.4,0-2.5-1.1-2.5-2.6v-57.5v-50.1
					c0-1.4,1.1-2.5,2.5-2.5h58L453.7,274.6z"/>
			</defs>
			<linearGradient id="XMLID_18_" gradientUnits="userSpaceOnUse" x1="370.2755" y1="308.2689" x2="453.6855" y2="308.2689">
				<stop  offset="0" style="stop-color:#D6D4D6"/>
				<stop  offset="1" style="stop-color:#FFFDFE"/>
			</linearGradient>
			<use xlink:href="#XMLID_8_"  style="overflow:visible;fill:url(#XMLID_18_);"/>
			<clipPath id="XMLID_19_">
				<use xlink:href="#XMLID_8_"  style="overflow:visible;"/>
			</clipPath>
			<path class="st32" d="M369.6,273.3c9.4,0.7,36.6,1.5,53.2,14.7c25,20,31.2,47.1,31.2,47.1l0.4,35.3l-84.8,0.2V273.3z"/>
			<use xlink:href="#XMLID_8_"  style="overflow:visible;fill:none;stroke:#FFFDFE;stroke-width:0.25;stroke-miterlimit:10;"/>
		</g>
		<path class="st28" d="M454,276.4l-20.6,0c-1.4,0-2.6-1.2-2.6-2.6l0-21.8l22.9,22.7L454,276.4z"/>
		<path class="st29" d="M453.8,274.8h-20.5c-1.4,0-2.5-1.1-2.5-2.5v-20.3l0,0l22.9,22.7L453.8,274.8z"/>
		<text transform="matrix(1 0 0 1 379.2353 264.8395)" class="st30 st9 st31">app.c</text>
	</g>
</g>
<g>
	<polygon class="st33" points="342.3,123.3 351.1,141.7 342.3,160.7 234.8,160.9 234.8,122.6 	"/>
	<path class="st23" d="M347.4,145.4"/>
	<linearGradient id="SVGID_8_" gradientUnits="userSpaceOnUse" x1="233.6667" y1="139.4088" x2="350.0318" y2="139.4088">
		<stop  offset="0" style="stop-color:#C1D5FF"/>
		<stop  offset="0.1995" style="stop-color:#BACDF6"/>
		<stop  offset="0.6001" style="stop-color:#B0C3EA"/>
		<stop  offset="1" style="stop-color:#ADC0E6"/>
	</linearGradient>
	<polygon class="st34" points="341.2,120.9 350,139.3 341.2,158.3 233.7,158.5 233.7,120.3 	"/>
	<text transform="matrix(1 0 0 1 262.9869 146.2633)" class="st8 st9 st35">PACK</text>
	<polygon class="st33" points="234.8,160.9 233.7,158.5 238,158.7 	"/>
</g>
<g>
	<path class="st23" d="M634.9,144.6L634.9,144.6z"/>
</g>
<g>
	<polygon class="st33" points="619.6,139.3 619.6,139.3 618.7,137.4 618.7,137.4 	"/>
	<path class="st23" d="M623.1,168.2L623.1,168.2z"/>
</g>
<g>
	<polygon class="st33" points="619.6,288.1 618.7,290 618.7,290 619.6,288.1 	"/>
	<path class="st23" d="M623.1,259.2L623.1,259.2z"/>
</g>
<g>
	<path class="st23" d="M617,282L617,282z"/>
</g>
<g>
	<g>
		<g>
			<defs>
				<path id="XMLID_10_" d="M722.7,276.5h-71.2c-11.6,0-21.1-9.4-21.1-21.1v-71.2c0-11.6,9.4-21.1,21.1-21.1h71.2
					c11.6,0,21.1,9.4,21.1,21.1v71.2C743.8,267,734.4,276.5,722.7,276.5z"/>
			</defs>
			<use xlink:href="#XMLID_10_"  style="overflow:visible;fill:#610041;"/>
			<clipPath id="XMLID_20_">
				<use xlink:href="#XMLID_10_"  style="overflow:visible;"/>
			</clipPath>
			<path class="st36" d="M754.3,172.5c-2.7,8-17.3,30.9-65.8,30.8c-24.5,0-48.4-7.4-65.7-24.7l-12.1-12l69.3-64.6L754.3,172.5z"/>
		</g>
		<polygon class="st37" points="637.6,271.2 632.5,266.1 640.3,269.4 		"/>
		<polygon class="st37" points="738.3,169.9 734.6,166.2 736.4,171 		"/>
		<g>
			<defs>
				<path id="XMLID_5_" d="M719.7,273.5h-71.2c-11.6,0-21.1-9.4-21.1-21.1v-71.2c0-11.6,9.4-21.1,21.1-21.1h71.2
					c11.6,0,21.1,9.4,21.1,21.1v71.2C740.8,264,731.4,273.5,719.7,273.5z"/>
			</defs>
			<radialGradient id="XMLID_21_" cx="684.119" cy="216.7761" r="56.6929" gradientUnits="userSpaceOnUse">
				<stop  offset="0" style="stop-color:#8B005D;stop-opacity:0.7"/>
				<stop  offset="1" style="stop-color:#8B005D"/>
			</radialGradient>
			<use xlink:href="#XMLID_5_"  style="overflow:visible;fill:url(#XMLID_21_);"/>
			<clipPath id="XMLID_22_">
				<use xlink:href="#XMLID_5_"  style="overflow:visible;"/>
			</clipPath>
			<radialGradient id="SVGID_9_" cx="678.486" cy="148.5836" r="90.2195" gradientUnits="userSpaceOnUse">
				<stop  offset="0" style="stop-color:#8B005D"/>
				<stop  offset="1" style="stop-color:#FFFFFF"/>
			</radialGradient>
			<path class="st38" d="M750.3,168.5c-2.7,8-17.3,30.9-65.8,30.8c-24.5,0-48.4-7.4-65.7-24.7l-12.1-12L676,97.9L750.3,168.5z"/>
		</g>
		<g>
			<g>
				<g>
					<g>
						<text transform="matrix(1 0 0 1 646.3768 216.49)" class="st8 st9 st35">APP.EXE</text>
					</g>
				</g>
			</g>
		</g>
	</g>
	<g>
		<g>
			<g>
				<path class="st8" d="M732,240.1c-0.3-1.4-0.8-2.7-1.4-3.9l1.7-2.3c-0.3-0.5-0.6-0.9-1-1.4c-0.3-0.5-0.7-0.9-1.1-1.3l-2.7,1
					c-1-1-2.2-1.8-3.4-2.4l0-2.9c-1-0.4-2.1-0.8-3.2-1l-1.5,2.4c-1.4-0.2-2.8-0.2-4.1,0l-1.7-2.4c-1.1,0.2-2.1,0.6-3.1,1.1l0.2,2.9
					c-0.6,0.3-1.2,0.7-1.7,1.1c-0.6,0.4-1.1,0.9-1.5,1.4l-2.7-0.9l-1.9,2.7l1.8,2.3c-0.6,1.3-1,2.6-1.1,4l-2.7,0.9
					c-0.1,1.1,0,2.2,0.1,3.3l2.8,0.8c0.3,1.3,0.8,2.7,1.4,3.9l-1.7,2.3c0.3,0.5,0.6,0.9,1,1.4c0.3,0.4,0.7,0.9,1.1,1.3l2.7-1
					c1,1,2.2,1.8,3.4,2.4l0,2.9c1,0.4,2.1,0.8,3.2,1l1.5-2.4c1.4,0.2,2.8,0.2,4.1,0l1.7,2.4c1.1-0.3,2.1-0.6,3.1-1.1l-0.2-2.9
					c0.6-0.3,1.2-0.7,1.7-1.1c0.6-0.4,1.1-0.9,1.5-1.4l2.8,0.9c0.7-0.8,1.3-1.8,1.9-2.7L731,249c0.6-1.3,1-2.6,1.1-4l2.7-0.9
					c0.1-1.1,0-2.2-0.1-3.3L732,240.1z M724,251c-4.6,3.5-11.1,2.6-14.6-2c-3.5-4.6-2.6-11.1,2-14.6s11.1-2.6,14.6,2
					C729.5,241,728.6,247.5,724,251z"/>
			</g>
		</g>
		<g>
			<g>
				<path class="st8" d="M700.5,249.3c-0.2-0.8-0.5-1.6-0.8-2.4l1-1.4c-0.2-0.3-0.4-0.6-0.6-0.8c-0.2-0.3-0.4-0.5-0.7-0.8l-1.6,0.6
					c-0.6-0.6-1.3-1.1-2.1-1.4l0-1.7c-0.6-0.3-1.3-0.5-1.9-0.6l-0.9,1.4c-0.8-0.1-1.7-0.1-2.5,0l-1-1.4c-0.6,0.1-1.3,0.4-1.9,0.6
					l0.1,1.7c-0.4,0.2-0.7,0.4-1,0.7c-0.3,0.3-0.6,0.5-0.9,0.8l-1.6-0.6l-1.1,1.6l1.1,1.4c-0.3,0.8-0.6,1.6-0.7,2.4l-1.6,0.5
					c0,0.7,0,1.3,0.1,2l1.7,0.5c0.2,0.8,0.4,1.6,0.9,2.4l-1,1.4c0.2,0.3,0.4,0.6,0.6,0.8c0.2,0.3,0.4,0.5,0.7,0.8l1.6-0.6
					c0.6,0.6,1.3,1.1,2.1,1.4l0,1.7c0.6,0.3,1.3,0.5,1.9,0.6l0.9-1.4c0.8,0.1,1.7,0.1,2.5,0l1,1.4c0.6-0.2,1.3-0.4,1.9-0.6l-0.1-1.7
					c0.4-0.2,0.7-0.4,1-0.7c0.3-0.3,0.6-0.5,0.9-0.8l1.6,0.6c0.4-0.5,0.8-1.1,1.1-1.6l-1.1-1.4c0.3-0.8,0.6-1.6,0.7-2.4l1.6-0.5
					c0-0.7,0-1.3-0.1-2L700.5,249.3z M694.5,254.2c-1.8,1.4-4.5,1-5.9-0.8c-1.4-1.8-1-4.5,0.8-5.9c1.8-1.4,4.5-1,5.9,0.8
					C696.8,250.2,696.4,252.8,694.5,254.2z"/>
			</g>
		</g>
		<path class="st39" d="M708.9,234.5"/>
		<path class="st39" d="M706.7,237.9"/>
		<path class="st40" d="M705.7,242.7c0-1.7,0.4-3.4,1-4.9"/>
		<path class="st40" d="M708.9,234.5c2.2-2.4,5.3-3.8,8.8-3.8"/>
		<path class="st40" d="M687.4,247.3c1.1-1.4,2.7-2.2,4.6-2.2"/>
		<path class="st39" d="M686.4,249.5"/>
		<path class="st40" d="M686.2,250.9c0-0.5,0.1-1,0.2-1.4"/>
		<path class="st39" d="M686.7,253.2"/>
	</g>
</g>
<g>
	<path class="st33" d="M611.7,174.2l-23,3.3l-13.1-9.6c-6.3-4.6-13.9-7.1-21.7-7l-55.5,0.1l-1.1-2.4h1.1l64.2-0.2h0.1l3.9,0h0.1
		l3.2,2.4l19.2,14l0.2,0.2l23.4-3.3L611.7,174.2z"/>
	<path class="st23" d="M595.9,145.5L595.9,145.5z"/>
	<linearGradient id="SVGID_10_" gradientUnits="userSpaceOnUse" x1="497.2089" y1="147.636" x2="612.739" y2="147.636">
		<stop  offset="0" style="stop-color:#C1D5FF"/>
		<stop  offset="0.1995" style="stop-color:#BACDF6"/>
		<stop  offset="0.6001" style="stop-color:#B0C3EA"/>
		<stop  offset="1" style="stop-color:#ADC0E6"/>
	</linearGradient>
	<path class="st41" d="M612.7,171.7l-3,0.4l-20.3,2.8l-0.2-0.1l-13.6-9.9l0,0c-3.7-2.7-8.7-4.4-12.9-5.4c-2.9-0.7-6-1-9-1l-35.5,0.1
		l-19.8,0.1h-1.1v-38.3l13.5,0.2l4,0l42.6,0.2l7.9,0c7,0,14,1.6,20.2,4.9c0,0,0,0,0,0c0.8,0.5,1.6,0.9,2.4,1.5l7.5,5.6l0.1,0.1l0,0
		l15.4,11.3v0l0.1,3.2L612.7,171.7z"/>
	<linearGradient id="SVGID_11_" gradientUnits="userSpaceOnUse" x1="597.6228" y1="138.4046" x2="598.5728" y2="138.4046">
		<stop  offset="0" style="stop-color:#C1D5FF"/>
		<stop  offset="0.1995" style="stop-color:#BACDF6"/>
		<stop  offset="0.6001" style="stop-color:#B0C3EA"/>
		<stop  offset="1" style="stop-color:#ADC0E6"/>
	</linearGradient>
	<polygon class="st42" points="598.6,139.3 598.6,139.4 597.6,137.4 597.7,137.5 	"/>
	<text transform="matrix(1 0 0 1 513.7678 146.3103)" class="st8 st9 st35">BUILD</text>
</g>
<g>
	<path class="st33" d="M612.7,258.8l-0.1,2.2l-1.8-0.2l-20.3-2.8l-0.2,0.1l-13.6,9.9l0-0.1c-3.7,2.7-8.7,4.4-12.9,5.4
		c-2.9,0.7-6,1-9,1l-35.5-0.1l-19.8-0.1h-1.1v35.4l-1.1,0.4l1.1,2.4l13.5-0.2l4,0l42.6-0.2l7.9-0.1c7,0,14-1.6,20.2-4.9c0,0,0,0,0,0
		c0.8-0.5,1.6-0.9,2.4-1.5l7.5-5.6l0.1-0.1l0,0l15.4-11.3l1-0.9l1.9-26.7L612.7,258.8z"/>
	<path class="st43" d="M593.5,272.5"/>
	<g>
		<path class="st23" d="M598.5,285L598.5,285z"/>
		
			<linearGradient id="SVGID_12_" gradientUnits="userSpaceOnUse" x1="497.2089" y1="451.0054" x2="612.739" y2="451.0054" gradientTransform="matrix(1 0 0 -1 0 733.8616)">
			<stop  offset="0" style="stop-color:#C1D5FF"/>
			<stop  offset="0.1995" style="stop-color:#BACDF6"/>
			<stop  offset="0.6001" style="stop-color:#B0C3EA"/>
			<stop  offset="1" style="stop-color:#ADC0E6"/>
		</linearGradient>
		<path class="st44" d="M612.7,258.8l-3-0.4l-20.3-2.8l-0.2,0.1l-13.6,9.9l0,0c-3.7,2.7-8.7,4.4-12.9,5.4c-2.9,0.7-6,1-9,1
			l-35.5-0.1l-19.8-0.1h-1.1v38.3l13.5-0.2l4,0l42.6-0.2l7.9,0c7,0,14-1.6,20.2-4.9c0,0,0,0,0,0c0.8-0.5,1.6-0.9,2.4-1.5l7.5-5.6
			l0.1-0.1l0,0l15.4-11.3v0l0.1-3.2L612.7,258.8z"/>
		<text transform="matrix(1 0 0 1 513.7682 298.0848)" class="st8 st9 st35">BUILD</text>
	</g>
</g>
<path class="st33" d="M619.9,149.1"/>
</svg>
